<?xml version="1.0" encoding="UTF-8" standalone="no"?>
<!-- Created with Inkscape (http://www.inkscape.org/) -->

<svg
   xmlns:dc="http://purl.org/dc/elements/1.1/"
   xmlns:cc="http://creativecommons.org/ns#"
   xmlns:rdf="http://www.w3.org/1999/02/22-rdf-syntax-ns#"
   xmlns:svg="http://www.w3.org/2000/svg"
   xmlns="http://www.w3.org/2000/svg"
   xmlns:inkscape="http://www.inkscape.org/namespaces/inkscape"
   version="1.1"
   width="200"
   height="110"
   id="svg2"
   xml:space="preserve"><metadata
     id="metadata8"><rdf:RDF><cc:Work
         rdf:about=""><dc:format>image/svg+xml</dc:format><dc:type
           rdf:resource="http://purl.org/dc/dcmitype/StillImage" /></cc:Work></rdf:RDF></metadata><defs
     id="defs6"><clipPath
       id="clipPath18"><path
         d="M 0,0 160,0 160,88 0,88 0,0 z"
         inkscape:connector-curvature="0"
         id="path20" /></clipPath><clipPath
       id="clipPath28"><path
         d="M 0,0 168,0 168,95 0,95 0,0 z"
         inkscape:connector-curvature="0"
         id="path30" /></clipPath><clipPath
       id="clipPath38"><path
         d="M 0,0 168,0 168,95 0,95 0,0 z"
         inkscape:connector-curvature="0"
         id="path40" /></clipPath></defs><g
     transform="matrix(1.25,0,0,-1.25,0,110)"
     id="g10"><g
       id="g12"><g
         id="g14"><g
           clip-path="url(#clipPath18)"
           id="g16"><g
             id="g22"><g
               id="g24"><g
                 clip-path="url(#clipPath28)"
                 id="g26"><g
                   id="g32" /><g
                   id="g34"><g
                     clip-path="url(#clipPath38)"
                     id="g36"><path
                       d="M 0,95 168,95 168,0 0,0 0,95 z"
                       inkscape:connector-curvature="0"
                       id="path42"
                       style="fill:#ffffff;fill-opacity:0;fill-rule:evenodd;stroke:none" /><g
                       transform="matrix(7.874016e-5,0,0,-7.874016e-5,2.05063,11.77362)"
                       id="g44"><path
                         d="M 0.00110149,0.00268555 1509114,0.00268555"
                         inkscape:connector-curvature="0"
                         id="path46"
                         style="fill:none;stroke:#89a24c;stroke-width:25400;stroke-linecap:butt;stroke-linejoin:round;stroke-miterlimit:10;stroke-opacity:1;stroke-dasharray:none" /></g><path
                       d="m 122.8631,11.77362 -7.4807,-4.363778 0,0 c -0.4771,-0.278281 -1.0894,-0.117145 -1.3677,0.359907 l 0,0 c -0.2783,0.477052 -0.1171,1.08937 0.3599,1.367651 l 4.5193,2.63622 -4.5193,2.63622 0,0 c -0.477,0.27828 -0.6382,0.8906 -0.3599,1.36765 0,0 0,0 0,0 l 0,0 c 0.2783,0.47705 0.8906,0.63819 1.3677,0.35991 l 7.4807,-4.36378 z"
                       inkscape:connector-curvature="0"
                       id="path48"
                       style="fill:#89a24c;fill-opacity:1;fill-rule:evenodd;stroke:none" /><g
                       transform="translate(45.9978,91.33095)"
                       id="g50"><text
                         transform="matrix(1,0,0,-1,18.676,-14)"
                         id="text52"><tspan
                           x="0 8.5651999"
                           y="0"
                           id="tspan54"
                           style="font-size:14px;font-variant:normal;font-weight:normal;writing-mode:lr-tb;fill:#000000;fill-opacity:1;fill-rule:nonzero;stroke:none;font-family:ArialMT;-inkscape-font-specification:ArialMT">A </tspan></text>
</g><g
                       transform="matrix(7.874016e-5,0,0,-7.874016e-5,2.050709,59.1337)"
                       id="g56"><path
                         d="M -5.645752e-4,-0.00682068 1969489,-0.00682068"
                         inkscape:connector-curvature="0"
                         id="path58"
                         style="fill:none;stroke:#89a24c;stroke-width:25400;stroke-linecap:butt;stroke-linejoin:round;stroke-miterlimit:10;stroke-opacity:1;stroke-dasharray:none" /></g><path
                       d="m 159.1132,59.1337 -7.4808,-4.36378 0,0 c -0.477,-0.27828 -1.0893,-0.11714 -1.3676,0.35991 l 0,0 c -0.2783,0.47705 -0.1172,1.08937 0.3599,1.36765 l 4.5192,2.63622 -4.5192,2.63622 0,0 c -0.4771,0.27828 -0.6382,0.8906 -0.3599,1.36765 0,0 0,0 0,0 l 0,0 c 0.2783,0.47705 0.8906,0.63819 1.3676,0.35991 l 7.4808,-4.36378 z"
                       inkscape:connector-curvature="0"
                       id="path60"
                       style="fill:#89a24c;fill-opacity:1;fill-rule:evenodd;stroke:none" /><g
                       transform="translate(45.99788,43.97087)"
                       id="g62"><text
                         transform="matrix(1,0,0,-1,19.446,-14)"
                         id="text64"><tspan
                           x="0 9.3380003"
                           y="0"
                           id="tspan66"
                           style="font-size:14px;font-variant:normal;font-weight:normal;writing-mode:lr-tb;fill:#000000;fill-opacity:1;fill-rule:nonzero;stroke:none;font-family:ArialMT;-inkscape-font-specification:ArialMT">B </tspan></text>
</g><g
                       transform="matrix(-7.874016e-5,0,0,-7.874016e-5,1.925354,70.05677)"
                       id="g68"><path
                         d="M -3.914833e-4,0.01687622 4564.999,887044"
                         inkscape:connector-curvature="0"
                         id="path70"
                         style="fill:none;stroke:#cbcbcb;stroke-width:25400;stroke-linecap:butt;stroke-linejoin:round;stroke-miterlimit:10;stroke-opacity:1;stroke-dasharray:76200, 25400;stroke-dashoffset:0" /></g></g></g></g></g></g></g></g></g></g></svg>