<?xml version="1.0" encoding="UTF-8" standalone="no"?>
<!-- Created with Inkscape (http://www.inkscape.org/) -->

<svg
   xmlns:dc="http://purl.org/dc/elements/1.1/"
   xmlns:cc="http://creativecommons.org/ns#"
   xmlns:rdf="http://www.w3.org/1999/02/22-rdf-syntax-ns#"
   xmlns:svg="http://www.w3.org/2000/svg"
   xmlns="http://www.w3.org/2000/svg"
   xmlns:inkscape="http://www.inkscape.org/namespaces/inkscape"
   version="1.1"
   width="185"
   height="127.5"
   id="svg2"
   xml:space="preserve"><metadata
     id="metadata8"><rdf:RDF><cc:Work
         rdf:about=""><dc:format>image/svg+xml</dc:format><dc:type
           rdf:resource="http://purl.org/dc/dcmitype/StillImage" /></cc:Work></rdf:RDF></metadata><defs
     id="defs6"><clipPath
       id="clipPath18"><path
         d="M 0,0 148,0 148,115 0,115 0,0 z"
         inkscape:connector-curvature="0"
         id="path20" /></clipPath><clipPath
       id="clipPath28"><path
         d="M 0,0 148,0 148,115 0,115 0,0 z"
         inkscape:connector-curvature="0"
         id="path30" /></clipPath></defs><g
     transform="matrix(1.25,0,0,-1.25,0,127.5)"
     id="g10"><g
       transform="translate(0,-6)"
       id="g12"><g
         id="g14"><g
           clip-path="url(#clipPath18)"
           id="g16"><g
             id="g22" /><g
             id="g24"><g
               clip-path="url(#clipPath28)"
               id="g26"><path
                 d="M 0,115 148,115 148,0 0,0 0,115 z"
                 inkscape:connector-curvature="0"
                 id="path32"
                 style="fill:#ffffff;fill-opacity:0;fill-rule:evenodd;stroke:none" /><g
                 transform="matrix(7.874016e-5,0,0,7.874016e-5,1.055827,79.00827)"
                 id="g34"><path
                   d="M 1.46389e-4,0.03234863 1508320,0.03234863"
                   inkscape:connector-curvature="0"
                   id="path36"
                   style="fill:none;stroke:#89a24c;stroke-width:25400;stroke-linecap:butt;stroke-linejoin:round;stroke-miterlimit:10;stroke-opacity:1;stroke-dasharray:none" /></g><path
                 d="m 121.8058,79.00827 -7.4807,4.36378 0,0 c -0.4771,0.27828 -1.0894,0.11715 -1.3677,-0.35991 l 0,0 c -0.2783,-0.47705 -0.1171,-1.08936 0.3599,-1.36765 l 4.5193,-2.63622 -4.5193,-2.63622 0,0 c -0.477,-0.27828 -0.6382,-0.8906 -0.3599,-1.36765 0,0 0,0 0,0 l 0,0 c 0.2783,-0.47706 0.8906,-0.63819 1.3677,-0.35991 l 7.4807,4.36378 z"
                 inkscape:connector-curvature="0"
                 id="path38"
                 style="fill:#89a24c;fill-opacity:1;fill-rule:evenodd;stroke:none" /><g
                 transform="translate(42.45512,111.2802)"
                 id="g40"><text
                   transform="matrix(1,0,0,-1,14.7868,-14)"
                   id="text42"><tspan
                     x="0 8.5651999"
                     y="0"
                     id="tspan44"
                     style="font-size:14px;font-variant:normal;font-weight:normal;writing-mode:lr-tb;fill:#000000;fill-opacity:1;fill-rule:nonzero;stroke:none;font-family:ArialMT;-inkscape-font-specification:ArialMT">A </tspan></text>
</g><g
                 transform="matrix(7.874016e-5,0,0,-7.874016e-5,26.40165,32.86819)"
                 id="g46"><path
                   d="m 25204.85,-0.00552368 1508320.15,0"
                   inkscape:connector-curvature="0"
                   id="path48"
                   style="fill:none;stroke:#a74a44;stroke-width:25400;stroke-linecap:butt;stroke-linejoin:round;stroke-miterlimit:10;stroke-opacity:1;stroke-dasharray:none" /></g><path
                 d="m 26.40165,32.86819 7.48077,4.36377 0,0 c 0.47705,0.27829 1.08937,0.11715 1.36764,-0.3599 l 0,0 c 0.27829,-0.47705 0.11715,-1.08937 -0.3599,-1.36765 l -4.51924,-2.63622 4.51924,-2.63622 0,0 c 0.47705,-0.27828 0.63819,-0.8906 0.3599,-1.36765 0,0 0,0 0,0 l 0,0 c -0.27827,-0.47706 -0.89059,-0.63819 -1.36764,-0.35991 l -7.48077,4.36378 z"
                 inkscape:connector-curvature="0"
                 id="path50"
                 style="fill:#a74a44;fill-opacity:1;fill-rule:evenodd;stroke:none" /><g
                 transform="translate(77.49134,20.8926)"
                 id="g52"><text
                   transform="matrix(1,0,0,-1,7.7784,-14)"
                   id="text54"><tspan
                     x="0 9.3380003"
                     y="0"
                     id="tspan56"
                     style="font-size:14px;font-variant:normal;font-weight:normal;writing-mode:lr-tb;fill:#000000;fill-opacity:1;fill-rule:nonzero;stroke:none;font-family:ArialMT;-inkscape-font-specification:ArialMT">B </tspan></text>
</g><g
                 transform="matrix(7.874016e-5,0,0,-7.874016e-5,1.055827,79.00827)"
                 id="g58"><path
                   d="M 1.46389e-4,-0.03234863 1855597,585979"
                   inkscape:connector-curvature="0"
                   id="path60"
                   style="fill:none;stroke:#cbcbcb;stroke-width:25400;stroke-linecap:butt;stroke-linejoin:round;stroke-miterlimit:10;stroke-opacity:1;stroke-dasharray:25400, 76200;stroke-dashoffset:0" /></g><g
                 transform="matrix(-7.874016e-5,0,0,-7.874016e-5,121.82,79.00827)"
                 id="g62"><path
                   d="M 0.00387573,-0.03234863 1211813,585979"
                   inkscape:connector-curvature="0"
                   id="path64"
                   style="fill:none;stroke:#cbcbcb;stroke-width:25400;stroke-linecap:butt;stroke-linejoin:round;stroke-miterlimit:10;stroke-opacity:1;stroke-dasharray:25400, 76200;stroke-dashoffset:0" /></g></g></g></g></g></g></g></svg>