<?xml version="1.0" encoding="UTF-8" standalone="no"?>
<!-- Created with Inkscape (http://www.inkscape.org/) -->

<svg
   xmlns:dc="http://purl.org/dc/elements/1.1/"
   xmlns:cc="http://creativecommons.org/ns#"
   xmlns:rdf="http://www.w3.org/1999/02/22-rdf-syntax-ns#"
   xmlns:svg="http://www.w3.org/2000/svg"
   xmlns="http://www.w3.org/2000/svg"
   xmlns:inkscape="http://www.inkscape.org/namespaces/inkscape"
   version="1.1"
   width="130"
   height="198.75"
   id="svg2"
   xml:space="preserve"><metadata
     id="metadata8"><rdf:RDF><cc:Work
         rdf:about=""><dc:format>image/svg+xml</dc:format><dc:type
           rdf:resource="http://purl.org/dc/dcmitype/StillImage" /></cc:Work></rdf:RDF></metadata><defs
     id="defs6"><clipPath
       id="clipPath18"><path
         d="M 0,0 112,0 112,166 0,166 0,0 z"
         inkscape:connector-curvature="0"
         id="path20" /></clipPath><clipPath
       id="clipPath28"><path
         d="M 0,0 112,0 112,166 0,166 0,0 z"
         inkscape:connector-curvature="0"
         id="path30" /></clipPath></defs><g
     transform="matrix(1.25,0,0,-1.25,0,198.75)"
     id="g10"><g
       transform="translate(-7,0)"
       id="g12"><g
         id="g14"><g
           clip-path="url(#clipPath18)"
           id="g16"><g
             id="g22" /><g
             id="g24"><g
               clip-path="url(#clipPath28)"
               id="g26"><path
                 d="M 0,166 112,166 112,0 0,0 0,166 z"
                 inkscape:connector-curvature="0"
                 id="path32"
                 style="fill:#ffffff;fill-opacity:0;fill-rule:evenodd;stroke:none" /><g
                 transform="matrix(0,7.874016e-5,7.874016e-5,0,92.39858,38.66142)"
                 id="g34"><path
                   d="M 0.00302124,-0.0027771 1479997,0.966156"
                   inkscape:connector-curvature="0"
                   id="path36"
                   style="fill:none;stroke:#4675a3;stroke-width:25400;stroke-linecap:butt;stroke-linejoin:round;stroke-miterlimit:10;stroke-opacity:1;stroke-dasharray:none" /></g><path
                 d="m 92.39866,157.1813 4.36378,-7.4808 0,0 c 0.27827,-0.4771 0.11714,-1.0894 -0.35991,-1.3677 l 0,0 c -0.47705,-0.2782 -1.08937,-0.1171 -1.36766,0.3599 l -2.63621,4.5193 -2.63622,-4.5193 0,0 c -0.27829,-0.477 -0.89061,-0.6381 -1.36766,-0.3598 0,0 0,0 0,0 l 0,0 c -0.47705,0.2782 -0.63818,0.8905 -0.35991,1.3676 l 4.36379,7.4808 z"
                 inkscape:connector-curvature="0"
                 id="path38"
                 style="fill:#4675a3;fill-opacity:1;fill-rule:evenodd;stroke:none" /><g
                 transform="matrix(0,1,-1,0,3.626063,76.10654)"
                 id="g40"><text
                   transform="matrix(1,0,0,-1,10.8976,-14)"
                   id="text42"><tspan
                     x="0 8.5651999"
                     y="0"
                     id="tspan44"
                     style="font-size:14px;font-variant:normal;font-weight:normal;writing-mode:lr-tb;fill:#000000;fill-opacity:1;fill-rule:nonzero;stroke:none;font-family:ArialMT;-inkscape-font-specification:ArialMT">A </tspan></text>
</g><g
                 transform="matrix(0,7.874016e-5,7.874016e-5,0,38.89508,0.1423187)"
                 id="g46"><path
                   d="M 6.103507e-5,-0.00805664 1969190,0.9608765"
                   inkscape:connector-curvature="0"
                   id="path48"
                   style="fill:none;stroke:#4675a3;stroke-width:25400;stroke-linecap:butt;stroke-linejoin:round;stroke-miterlimit:10;stroke-opacity:1;stroke-dasharray:none" /></g><path
                 d="m 38.89516,157.1813 4.36377,-7.4808 0,0 c 0.27828,-0.477 0.11715,-1.0893 -0.35991,-1.3676 l 0,0 c -0.47705,-0.2783 -1.08937,-0.1172 -1.36764,0.3599 l -2.63622,4.5192 -2.63623,-4.5192 0,0 c -0.27828,-0.4771 -0.8906,-0.6382 -1.36765,-0.3599 0,0 0,0 0,0 l 0,0 c -0.47705,0.2783 -0.63819,0.8906 -0.3599,1.3676 l 4.36378,7.4808 z"
                 inkscape:connector-curvature="0"
                 id="path50"
                 style="fill:#4675a3;fill-opacity:1;fill-rule:evenodd;stroke:none" /><g
                 transform="matrix(0,1,-1,0,57.12965,76.10665)"
                 id="g52"><text
                   transform="matrix(1,0,0,-1,11.6676,-14)"
                   id="text54"><tspan
                     x="0 9.3380003"
                     y="0"
                     id="tspan56"
                     style="font-size:14px;font-variant:normal;font-weight:normal;writing-mode:lr-tb;fill:#000000;fill-opacity:1;fill-rule:nonzero;stroke:none;font-family:ArialMT;-inkscape-font-specification:ArialMT">B </tspan></text>
</g><g
                 transform="matrix(0,7.874016e-5,7.874016e-5,0,16.68791,157.1811)"
                 id="g58"><path
                   d="M -0.0279541,0.0064621 1.909912,1202685"
                   inkscape:connector-curvature="0"
                   id="path60"
                   style="fill:none;stroke:#cbcbcb;stroke-width:25400;stroke-linecap:butt;stroke-linejoin:round;stroke-miterlimit:10;stroke-opacity:1;stroke-dasharray:76200, 25400;stroke-dashoffset:0" /></g></g></g></g></g></g></g></svg>