<?xml version="1.0" encoding="UTF-8" standalone="no"?>
<!-- Created with Inkscape (http://www.inkscape.org/) -->

<svg
   xmlns:dc="http://purl.org/dc/elements/1.1/"
   xmlns:cc="http://creativecommons.org/ns#"
   xmlns:rdf="http://www.w3.org/1999/02/22-rdf-syntax-ns#"
   xmlns:svg="http://www.w3.org/2000/svg"
   xmlns="http://www.w3.org/2000/svg"
   xmlns:inkscape="http://www.inkscape.org/namespaces/inkscape"
   version="1.1"
   width="83.75"
   height="243.75"
   id="svg2"
   xml:space="preserve"><metadata
     id="metadata8"><rdf:RDF><cc:Work
         rdf:about=""><dc:format>image/svg+xml</dc:format><dc:type
           rdf:resource="http://purl.org/dc/dcmitype/StillImage" /></cc:Work></rdf:RDF></metadata><defs
     id="defs6"><clipPath
       id="clipPath18"><path
         d="M 0,0 67,0 67,195 0,195 0,0 z"
         inkscape:connector-curvature="0"
         id="path20" /></clipPath><clipPath
       id="clipPath28"><path
         d="M 0,0 78,0 78,195 0,195 0,0 z"
         inkscape:connector-curvature="0"
         id="path30" /></clipPath><clipPath
       id="clipPath38"><path
         d="M 0,0 78,0 78,195 0,195 0,0 z"
         inkscape:connector-curvature="0"
         id="path40" /></clipPath></defs><g
     transform="matrix(1.25,0,0,-1.25,0,243.75)"
     id="g10"><g
       id="g12"><g
         id="g14"><g
           clip-path="url(#clipPath18)"
           id="g16"><g
             transform="translate(-7,0)"
             id="g22"><g
               id="g24"><g
                 clip-path="url(#clipPath28)"
                 id="g26"><g
                   id="g32" /><g
                   id="g34"><g
                     clip-path="url(#clipPath38)"
                     id="g36"><path
                       d="M 0,195 78,195 78,0 0,0 0,195 z"
                       inkscape:connector-curvature="0"
                       id="path42"
                       style="fill:#ffffff;fill-opacity:0;fill-rule:evenodd;stroke:none" /><g
                       transform="matrix(0,7.874016e-5,7.874016e-5,0,31.37012,0.8289337)"
                       id="g44"><path
                         d="M 1.831054e-4,0.01953125 1509154,1.012688"
                         inkscape:connector-curvature="0"
                         id="path46"
                         style="fill:none;stroke:#6095c9;stroke-width:25400;stroke-linecap:butt;stroke-linejoin:round;stroke-miterlimit:10;stroke-opacity:1;stroke-dasharray:none" /></g><path
                       d="m 31.3702,121.6446 4.36377,-7.4808 0,0 c 0.27828,-0.477 0.11714,-1.0893 -0.35991,-1.3676 l 0,0 c -0.47705,-0.2783 -1.08937,-0.1172 -1.36765,0.3599 l -2.63622,4.5192 -2.63622,-4.5192 0,0 c -0.27828,-0.4771 -0.8906,-0.6382 -1.36765,-0.3599 0,0 0,0 0,0 l 0,0 c -0.47705,0.2783 -0.63819,0.8906 -0.35991,1.3676 l 4.36379,7.4808 z"
                       inkscape:connector-curvature="0"
                       id="path48"
                       style="fill:#6095c9;fill-opacity:1;fill-rule:evenodd;stroke:none" /><g
                       transform="matrix(0,1,-1,0,3.887204,40.11665)"
                       id="g50"><text
                         transform="matrix(1,0,0,-1,14.7868,-14)"
                         id="text52"><tspan
                           x="0 8.5651999"
                           y="0"
                           id="tspan54"
                           style="font-size:14px;font-variant:normal;font-weight:normal;writing-mode:lr-tb;fill:#000000;fill-opacity:1;fill-rule:nonzero;stroke:none;font-family:ArialMT;-inkscape-font-specification:ArialMT">A </tspan></text>
</g><g
                       transform="matrix(0,-7.874016e-5,7.874016e-5,0,69.3015,194.5029)"
                       id="g56"><path
                         d="M -0.01324463,0.02984619 1509153,0.9987793"
                         inkscape:connector-curvature="0"
                         id="path58"
                         style="fill:none;stroke:#6095c9;stroke-width:25400;stroke-linecap:butt;stroke-linejoin:round;stroke-miterlimit:10;stroke-opacity:1;stroke-dasharray:none" /></g><path
                       d="m 69.30157,73.68732 4.36378,7.48077 0,0 c 0.27828,0.47705 0.11714,1.08937 -0.35991,1.36765 l 0,0 c -0.47705,0.27828 -1.08937,0.11715 -1.36765,-0.35991 l -2.63622,-4.51924 -2.63622,4.51924 0,0 c -0.27828,0.47705 -0.8906,0.63819 -1.36765,0.35991 0,0 0,0 0,0 l 0,0 c -0.47705,-0.27829 -0.63818,-0.89061 -0.35991,-1.36766 l 4.36378,-7.48076 z"
                       inkscape:connector-curvature="0"
                       id="path60"
                       style="fill:#6095c9;fill-opacity:1;fill-rule:evenodd;stroke:none" /><g
                       transform="matrix(0,1,-1,0,41.81862,106.1637)"
                       id="g62"><text
                         transform="matrix(1,0,0,-1,15.5568,-14)"
                         id="text64"><tspan
                           x="0 9.3380003"
                           y="0"
                           id="tspan66"
                           style="font-size:14px;font-variant:normal;font-weight:normal;writing-mode:lr-tb;fill:#000000;fill-opacity:1;fill-rule:nonzero;stroke:none;font-family:ArialMT;-inkscape-font-specification:ArialMT">B </tspan></text>
</g></g></g></g></g></g></g></g></g></g></svg>