<?xml version="1.0" encoding="UTF-8" standalone="no"?>
<!-- Created with Inkscape (http://www.inkscape.org/) -->

<svg
   xmlns:dc="http://purl.org/dc/elements/1.1/"
   xmlns:cc="http://creativecommons.org/ns#"
   xmlns:rdf="http://www.w3.org/1999/02/22-rdf-syntax-ns#"
   xmlns:svg="http://www.w3.org/2000/svg"
   xmlns="http://www.w3.org/2000/svg"
   xmlns:inkscape="http://www.inkscape.org/namespaces/inkscape"
   version="1.1"
   width="57.5"
   height="336.25"
   id="svg2"
   xml:space="preserve"><metadata
     id="metadata8"><rdf:RDF><cc:Work
         rdf:about=""><dc:format>image/svg+xml</dc:format><dc:type
           rdf:resource="http://purl.org/dc/dcmitype/StillImage" /></cc:Work></rdf:RDF></metadata><defs
     id="defs6"><clipPath
       id="clipPath18"><path
         d="M 0,0 57,0 57,284 0,284 0,0 z"
         inkscape:connector-curvature="0"
         id="path20" /></clipPath><clipPath
       id="clipPath28"><path
         d="M 0,0 57,0 57,284 0,284 0,0 z"
         inkscape:connector-curvature="0"
         id="path30" /></clipPath></defs><g
     transform="matrix(1.25,0,0,-1.25,0,336.25)"
     id="g10"><g
       transform="translate(-8,-7)"
       id="g12"><g
         id="g14"><g
           clip-path="url(#clipPath18)"
           id="g16"><g
             id="g22" /><g
             id="g24"><g
               clip-path="url(#clipPath28)"
               id="g26"><path
                 d="M 0,284 57,284 57,0 0,0 0,284 z"
                 inkscape:connector-curvature="0"
                 id="path32"
                 style="fill:#ffffff;fill-opacity:0;fill-rule:evenodd;stroke:none" /><g
                 transform="matrix(0,7.874016e-5,-7.874016e-5,0,49.00937,156.1169)"
                 id="g34"><path
                   d="M -0.01312256,0.01501465 1493679,359.9252"
                   inkscape:connector-curvature="0"
                   id="path36"
                   style="fill:none;stroke:#6095c9;stroke-width:25400;stroke-linecap:butt;stroke-linejoin:round;stroke-miterlimit:10;stroke-opacity:1;stroke-dasharray:none" /></g><path
                 d="m 48.98055,275.7141 -4.36197,-7.4818 0,0 c -0.27817,-0.4771 -0.11689,-1.0894 0.36023,-1.3676 l 0,0 c 0.47712,-0.2782 1.0894,-0.1169 1.36756,0.3602 l 2.63514,4.5199 2.63731,-4.5186 0,0 c 0.27839,-0.477 0.89075,-0.6379 1.36773,-0.3596 0,0 0,0 0,0 l 0,0 c 0.47699,0.2785 0.63798,0.8908 0.35958,1.3678 l -4.36558,7.4797 z"
                 inkscape:connector-curvature="0"
                 id="path38"
                 style="fill:#6095c9;fill-opacity:1;fill-rule:evenodd;stroke:none" /><g
                 transform="matrix(0,1,-1,0,4.280905,191.8983)"
                 id="g40"><text
                   transform="matrix(1,0,0,-1,14.7868,-14)"
                   id="text42"><tspan
                     x="0 8.5651999"
                     y="0"
                     id="tspan44"
                     style="font-size:14px;font-variant:normal;font-weight:normal;writing-mode:lr-tb;fill:#000000;fill-opacity:1;fill-rule:nonzero;stroke:none;font-family:ArialMT;-inkscape-font-specification:ArialMT">A </tspan></text>
</g><g
                 transform="matrix(0,-7.874016e-5,7.874016e-5,0,48.98063,128.8817)"
                 id="g46"><path
                   d="M 0.0090332,-0.01211548 1510635,0.9568176"
                   inkscape:connector-curvature="0"
                   id="path48"
                   style="fill:none;stroke:#6095c9;stroke-width:25400;stroke-linecap:butt;stroke-linejoin:round;stroke-miterlimit:10;stroke-opacity:1;stroke-dasharray:none" /></g><path
                 d="m 48.98071,7.949369 4.36377,7.480771 0,0 c 0.27828,0.47705 0.11714,1.08937 -0.35991,1.36764 l 0,0 c -0.47705,0.27829 -1.08937,0.11715 -1.36765,-0.3599 l -2.63621,-4.51924 -2.63623,4.51923 0,0 c -0.27828,0.47705 -0.8906,0.63819 -1.36765,0.35991 0,0 0,0 0,0 l 0,0 c -0.47705,-0.27828 -0.63819,-0.8906 -0.35991,-1.36765 l 4.36379,-7.480761 z"
                 inkscape:connector-curvature="0"
                 id="path50"
                 style="fill:#6095c9;fill-opacity:1;fill-rule:evenodd;stroke:none" /><g
                 transform="matrix(0,1,-1,0,4.297598,46.03406)"
                 id="g52"><text
                   transform="matrix(1,0,0,-1,19.446,-14)"
                   id="text54"><tspan
                     x="0 9.3380003"
                     y="0"
                     id="tspan56"
                     style="font-size:14px;font-variant:normal;font-weight:normal;writing-mode:lr-tb;fill:#000000;fill-opacity:1;fill-rule:nonzero;stroke:none;font-family:ArialMT;-inkscape-font-specification:ArialMT">B </tspan></text>
</g></g></g></g></g></g></g></svg>