<?xml version="1.0" encoding="UTF-8" standalone="no"?>
<!-- Created with Inkscape (http://www.inkscape.org/) -->

<svg
   xmlns:dc="http://purl.org/dc/elements/1.1/"
   xmlns:cc="http://creativecommons.org/ns#"
   xmlns:rdf="http://www.w3.org/1999/02/22-rdf-syntax-ns#"
   xmlns:svg="http://www.w3.org/2000/svg"
   xmlns="http://www.w3.org/2000/svg"
   xmlns:inkscape="http://www.inkscape.org/namespaces/inkscape"
   version="1.1"
   width="346.25"
   height="48.75"
   id="svg2"
   xml:space="preserve"><metadata
     id="metadata8"><rdf:RDF><cc:Work
         rdf:about=""><dc:format>image/svg+xml</dc:format><dc:type
           rdf:resource="http://purl.org/dc/dcmitype/StillImage" /></cc:Work></rdf:RDF></metadata><defs
     id="defs6"><clipPath
       id="clipPath18"><path
         d="M 0,0 293,0 293,50 0,50 0,0 z"
         inkscape:connector-curvature="0"
         id="path20" /></clipPath><clipPath
       id="clipPath28"><path
         d="M 0,0 293,0 293,50 0,50 0,0 z"
         inkscape:connector-curvature="0"
         id="path30" /></clipPath></defs><g
     transform="matrix(1.25,0,0,-1.25,0,48.75)"
     id="g10"><g
       transform="translate(-8,-3)"
       id="g12"><g
         id="g14"><g
           clip-path="url(#clipPath18)"
           id="g16"><g
             id="g22" /><g
             id="g24"><g
               clip-path="url(#clipPath28)"
               id="g26"><path
                 d="M 0,50 293,50 293,0 0,0 0,50 z"
                 inkscape:connector-curvature="0"
                 id="path32"
                 style="fill:#ffffff;fill-opacity:0;fill-rule:evenodd;stroke:none" /><g
                 transform="matrix(7.874016e-5,0,0,-7.874016e-5,163.8272,8.573227)"
                 id="g34"><path
                   d="m 0.07287598,-0.00543213 1509113.92712402,0"
                   inkscape:connector-curvature="0"
                   id="path36"
                   style="fill:none;stroke:#89a24c;stroke-width:25400;stroke-linecap:butt;stroke-linejoin:round;stroke-miterlimit:10;stroke-opacity:1;stroke-dasharray:none" /></g><path
                 d="m 284.6398,8.573227 -7.4808,-4.363779 0,0 c -0.4771,-0.27828 -1.0894,-0.117144 -1.3676,0.359907 l 0,0 c -0.2783,0.477053 -0.1172,1.08937 0.3598,1.367651 l 4.5193,2.636221 -4.5193,2.636223 0,0 c -0.477,0.27828 -0.6381,0.8906 -0.3598,1.36765 0,0 0,0 0,0 l 0,0 c 0.2782,0.47705 0.8905,0.63819 1.3676,0.35991 l 7.4808,-4.363783 z"
                 inkscape:connector-curvature="0"
                 id="path38"
                 style="fill:#89a24c;fill-opacity:1;fill-rule:evenodd;stroke:none" /><g
                 transform="translate(203.9446,45.43496)"
                 id="g40"><text
                   transform="matrix(1,0,0,-1,11.6676,-14)"
                   id="text42"><tspan
                     x="0 9.3380003"
                     y="0"
                     id="tspan44"
                     style="font-size:14px;font-variant:normal;font-weight:normal;writing-mode:lr-tb;fill:#000000;fill-opacity:1;fill-rule:nonzero;stroke:none;font-family:ArialMT;-inkscape-font-specification:ArialMT">B </tspan></text>
</g><g
                 transform="matrix(-7.874016e-5,0,0,7.874016e-5,133.4488,8.494644)"
                 id="g46"><path
                   d="M -0.03967285,0.0043335 1564227,5182.5"
                   inkscape:connector-curvature="0"
                   id="path48"
                   style="fill:none;stroke:#a74a44;stroke-width:25400;stroke-linecap:butt;stroke-linejoin:round;stroke-miterlimit:10;stroke-opacity:1;stroke-dasharray:none" /></g><path
                 d="m 8.296697,8.90929 7.495183,4.33897 0,0 c 0.47797,0.2767 1.08975,0.11353 1.36645,-0.36444 l 0,0 c 0.2767,-0.47797 0.11353,-1.08975 -0.36444,-1.36645 l -4.52795,-2.621231 4.51048,-2.651179 0,0 c 0.47613,-0.27986 0.63524,-0.892708 0.35538,-1.368835 0,0 0,0 0,0 l 0,0 C 16.85194,4.399997 16.23909,4.240891 15.76296,4.52075 L 8.296697,8.90929 z"
                 inkscape:connector-curvature="0"
                 id="path50"
                 style="fill:#a74a44;fill-opacity:1;fill-rule:evenodd;stroke:none" /><g
                 transform="translate(47.33929,45.7322)"
                 id="g52"><text
                   transform="matrix(1,0,0,-1,14.7868,-14)"
                   id="text54"><tspan
                     x="0 8.5651999"
                     y="0"
                     id="tspan56"
                     style="font-size:14px;font-variant:normal;font-weight:normal;writing-mode:lr-tb;fill:#000000;fill-opacity:1;fill-rule:nonzero;stroke:none;font-family:ArialMT;-inkscape-font-specification:ArialMT">A </tspan></text>
</g></g></g></g></g></g></g></svg>