<?xml version="1.0" encoding="UTF-8" standalone="no"?>
<!-- Created with Inkscape (http://www.inkscape.org/) -->

<svg
   xmlns:dc="http://purl.org/dc/elements/1.1/"
   xmlns:cc="http://creativecommons.org/ns#"
   xmlns:rdf="http://www.w3.org/1999/02/22-rdf-syntax-ns#"
   xmlns:svg="http://www.w3.org/2000/svg"
   xmlns="http://www.w3.org/2000/svg"
   xmlns:inkscape="http://www.inkscape.org/namespaces/inkscape"
   version="1.1"
   width="58.75"
   height="336.25"
   id="svg2"
   xml:space="preserve"><metadata
     id="metadata8"><rdf:RDF><cc:Work
         rdf:about=""><dc:format>image/svg+xml</dc:format><dc:type
           rdf:resource="http://purl.org/dc/dcmitype/StillImage" /></cc:Work></rdf:RDF></metadata><defs
     id="defs6"><clipPath
       id="clipPath18"><path
         d="M 0,0 57,0 57,269 0,269 0,0 z"
         inkscape:connector-curvature="0"
         id="path20" /></clipPath><clipPath
       id="clipPath28"><path
         d="M 0,0 57,0 57,269 0,269 0,0 z"
         inkscape:connector-curvature="0"
         id="path30" /></clipPath></defs><g
     transform="matrix(1.25,0,0,-1.25,0,336.25)"
     id="g10"><g
       transform="translate(-7,0)"
       id="g12"><g
         id="g14"><g
           clip-path="url(#clipPath18)"
           id="g16"><g
             id="g22" /><g
             id="g24"><g
               clip-path="url(#clipPath28)"
               id="g26"><path
                 d="M 0,269 57,269 57,0 0,0 0,269 z"
                 inkscape:connector-curvature="0"
                 id="path32"
                 style="fill:#ffffff;fill-opacity:0;fill-rule:evenodd;stroke:none" /><g
                 transform="matrix(0,7.874016e-5,7.874016e-5,0,48.64898,0.9493713)"
                 id="g34"><path
                   d="M 3.662108e-4,-0.01277161 1550233,0.9561615"
                   inkscape:connector-curvature="0"
                   id="path36"
                   style="fill:none;stroke:#6095c9;stroke-width:25400;stroke-linecap:butt;stroke-linejoin:round;stroke-miterlimit:10;stroke-opacity:1;stroke-dasharray:none" /></g><path
                 d="m 48.64905,124.9996 4.36378,-7.4808 0,0 c 0.27828,-0.477 0.11714,-1.0893 -0.35991,-1.3676 l 0,0 c -0.47705,-0.2783 -1.08937,-0.1172 -1.36765,0.3599 l -2.63622,4.5192 -2.63622,-4.5192 0,0 c -0.27828,-0.477 -0.8906,-0.6382 -1.36765,-0.3599 0,0 0,0 0,0 l 0,0 c -0.47705,0.2783 -0.63819,0.8906 -0.35991,1.3677 l 4.36378,7.4807 z"
                 inkscape:connector-curvature="0"
                 id="path38"
                 style="fill:#6095c9;fill-opacity:1;fill-rule:evenodd;stroke:none" /><g
                 transform="matrix(0,1,-1,0,3.966023,42.15186)"
                 id="g40"><text
                   transform="matrix(1,0,0,-1,14.7868,-14)"
                   id="text42"><tspan
                     x="0 8.5651999"
                     y="0"
                     id="tspan44"
                     style="font-size:14px;font-variant:normal;font-weight:normal;writing-mode:lr-tb;fill:#000000;fill-opacity:1;fill-rule:nonzero;stroke:none;font-family:ArialMT;-inkscape-font-specification:ArialMT">A </tspan></text>
</g><g
                 transform="matrix(0,-7.874016e-5,7.874016e-5,0,48.61551,268.7141)"
                 id="g46"><path
                   d="M -0.07629395,0.01316834 1509153,0.9821014"
                   inkscape:connector-curvature="0"
                   id="path48"
                   style="fill:none;stroke:#6095c9;stroke-width:25400;stroke-linecap:butt;stroke-linejoin:round;stroke-miterlimit:10;stroke-opacity:1;stroke-dasharray:none" /></g><path
                 d="m 48.61559,147.8985 4.36378,7.4807 0,0 c 0.27827,0.4771 0.11714,1.0894 -0.35991,1.3677 l 0,0 c -0.47706,0.2783 -1.08937,0.1171 -1.36766,-0.3599 l -2.63621,-4.5192 -2.63623,4.5192 0,0 c -0.27828,0.477 -0.8906,0.6382 -1.36765,0.3599 0,0 0,0 0,0 l 0,0 c -0.47705,-0.2783 -0.63818,-0.8906 -0.3599,-1.3677 l 4.36378,-7.4807 z"
                 inkscape:connector-curvature="0"
                 id="path50"
                 style="fill:#6095c9;fill-opacity:1;fill-rule:evenodd;stroke:none" /><g
                 transform="matrix(0,1,-1,0,3.915787,185.8663)"
                 id="g52"><text
                   transform="matrix(1,0,0,-1,15.5568,-14)"
                   id="text54"><tspan
                     x="0 9.3380003"
                     y="0"
                     id="tspan56"
                     style="font-size:14px;font-variant:normal;font-weight:normal;writing-mode:lr-tb;fill:#000000;fill-opacity:1;fill-rule:nonzero;stroke:none;font-family:ArialMT;-inkscape-font-specification:ArialMT">B </tspan></text>
</g></g></g></g></g></g></g></svg>