<?xml version="1.0" encoding="UTF-8" standalone="no"?>
<!-- Created with Inkscape (http://www.inkscape.org/) -->

<svg
   xmlns:dc="http://purl.org/dc/elements/1.1/"
   xmlns:cc="http://creativecommons.org/ns#"
   xmlns:rdf="http://www.w3.org/1999/02/22-rdf-syntax-ns#"
   xmlns:svg="http://www.w3.org/2000/svg"
   xmlns="http://www.w3.org/2000/svg"
   xmlns:inkscape="http://www.inkscape.org/namespaces/inkscape"
   version="1.1"
   width="346.25"
   height="48.75"
   id="svg2"
   xml:space="preserve"><metadata
     id="metadata8"><rdf:RDF><cc:Work
         rdf:about=""><dc:format>image/svg+xml</dc:format><dc:type
           rdf:resource="http://purl.org/dc/dcmitype/StillImage" /></cc:Work></rdf:RDF></metadata><defs
     id="defs6"><clipPath
       id="clipPath18"><path
         d="M 0,0 293,0 293,50 0,50 0,0 z"
         inkscape:connector-curvature="0"
         id="path20" /></clipPath><clipPath
       id="clipPath28"><path
         d="M 0,0 293,0 293,50 0,50 0,0 z"
         inkscape:connector-curvature="0"
         id="path30" /></clipPath></defs><g
     transform="matrix(1.25,0,0,-1.25,0,48.75)"
     id="g10"><g
       transform="translate(-8,-3)"
       id="g12"><g
         id="g14"><g
           clip-path="url(#clipPath18)"
           id="g16"><g
             id="g22" /><g
             id="g24"><g
               clip-path="url(#clipPath28)"
               id="g26"><path
                 d="M 0,50 293,50 293,0 0,0 0,50 z"
                 inkscape:connector-curvature="0"
                 id="path32"
                 style="fill:#ffffff;fill-opacity:0;fill-rule:evenodd;stroke:none" /><g
                 transform="matrix(7.874016e-5,0,0,-7.874016e-5,163.8272,8.883701)"
                 id="g34"><path
                   d="M -0.02105713,9.918213e-4 1509114,3122.848"
                   inkscape:connector-curvature="0"
                   id="path36"
                   style="fill:none;stroke:#89a24c;stroke-width:25400;stroke-linecap:butt;stroke-linejoin:round;stroke-miterlimit:10;stroke-opacity:1;stroke-dasharray:none" /></g><path
                 d="m 284.6396,8.633701 -7.4897,-4.34829 0,0 c -0.4777,-0.277292 -1.0896,-0.114889 -1.3669,0.362738 l 0,0 c -0.2773,0.477626 -0.1149,1.089609 0.3627,1.366902 l 4.5247,2.626863 -4.5138,2.645566 0,0 c -0.4765,0.27927 -0.6363,0.89192 -0.357,1.36839 0,0 0,0 0,0 l 0,0 c 0.2792,0.47648 0.8919,0.63635 1.3683,0.35708 l 7.4717,-4.379249 z"
                 inkscape:connector-curvature="0"
                 id="path38"
                 style="fill:#89a24c;fill-opacity:1;fill-rule:evenodd;stroke:none" /><g
                 transform="translate(206.1314,45.74591)"
                 id="g40"><text
                   transform="matrix(1,0,0,-1,14.7868,-14)"
                   id="text42"><tspan
                     x="0 8.5651999"
                     y="0"
                     id="tspan44"
                     style="font-size:14px;font-variant:normal;font-weight:normal;writing-mode:lr-tb;fill:#000000;fill-opacity:1;fill-rule:nonzero;stroke:none;font-family:ArialMT;-inkscape-font-specification:ArialMT">A </tspan></text>
</g><g
                 transform="matrix(-7.874016e-5,0,0,-7.874016e-5,133.4487,8.883701)"
                 id="g46"><path
                   d="M -0.03302002,9.918213e-4 1564226,0.9820366"
                   inkscape:connector-curvature="0"
                   id="path48"
                   style="fill:none;stroke:#a74a44;stroke-width:25400;stroke-linecap:butt;stroke-linejoin:round;stroke-miterlimit:10;stroke-opacity:1;stroke-dasharray:none" /></g><path
                 d="m 8.296605,8.883623 7.480765,-4.363774 0,0 c 0.47706,-0.27828 1.08937,-0.117144 1.36765,0.359908 l 0,0 c 0.27828,0.477053 0.11715,1.08937 -0.35991,1.36765 l -4.51923,2.636218 4.51923,2.636225 0,0 c 0.47705,0.27828 0.63819,0.8906 0.35991,1.36765 0,0 0,0 0,0 l 0,0 c -0.27828,0.47705 -0.8906,0.63819 -1.36765,0.35991 L 8.296605,8.883623 z"
                 inkscape:connector-curvature="0"
                 id="path50"
                 style="fill:#a74a44;fill-opacity:1;fill-rule:evenodd;stroke:none" /><g
                 transform="translate(50.60086,45.70614)"
                 id="g52"><text
                   transform="matrix(1,0,0,-1,11.6676,-14)"
                   id="text54"><tspan
                     x="0 9.3380003"
                     y="0"
                     id="tspan56"
                     style="font-size:14px;font-variant:normal;font-weight:normal;writing-mode:lr-tb;fill:#000000;fill-opacity:1;fill-rule:nonzero;stroke:none;font-family:ArialMT;-inkscape-font-specification:ArialMT">B </tspan></text>
</g></g></g></g></g></g></g></svg>