<?xml version="1.0" encoding="UTF-8" standalone="no"?>
<!-- Created with Inkscape (http://www.inkscape.org/) -->

<svg
   xmlns:dc="http://purl.org/dc/elements/1.1/"
   xmlns:cc="http://creativecommons.org/ns#"
   xmlns:rdf="http://www.w3.org/1999/02/22-rdf-syntax-ns#"
   xmlns:svg="http://www.w3.org/2000/svg"
   xmlns="http://www.w3.org/2000/svg"
   xmlns:inkscape="http://www.inkscape.org/namespaces/inkscape"
   version="1.1"
   width="200"
   height="106.25"
   id="svg2"
   xml:space="preserve"><metadata
     id="metadata8"><rdf:RDF><cc:Work
         rdf:about=""><dc:format>image/svg+xml</dc:format><dc:type
           rdf:resource="http://purl.org/dc/dcmitype/StillImage" /></cc:Work></rdf:RDF></metadata><defs
     id="defs6"><clipPath
       id="clipPath18"><path
         d="M 0,0 166,0 166,92 0,92 0,0 z"
         inkscape:connector-curvature="0"
         id="path20" /></clipPath><clipPath
       id="clipPath28"><path
         d="M 0,0 166,0 166,92 0,92 0,0 z"
         inkscape:connector-curvature="0"
         id="path30" /></clipPath></defs><g
     transform="matrix(1.25,0,0,-1.25,0,106.25)"
     id="g10"><g
       id="g12"><g
         id="g14"><g
           clip-path="url(#clipPath18)"
           id="g16"><g
             id="g22" /><g
             id="g24"><g
               clip-path="url(#clipPath28)"
               id="g26"><path
                 d="M 0,92 166,92 166,0 0,0 0,92 z"
                 inkscape:connector-curvature="0"
                 id="path32"
                 style="fill:#ffffff;fill-opacity:0;fill-rule:evenodd;stroke:none" /><g
                 transform="matrix(-7.874016e-5,0,0,-7.874016e-5,157.0824,14.16055)"
                 id="g34"><path
                   d="M -0.06018066,-0.00720215 1479997,0.9738426"
                   inkscape:connector-curvature="0"
                   id="path36"
                   style="fill:none;stroke:#a74a44;stroke-width:25400;stroke-linecap:butt;stroke-linejoin:round;stroke-miterlimit:10;stroke-opacity:1;stroke-dasharray:none" /></g><path
                 d="m 38.56252,14.16047 7.48077,-4.36377 0,0 c 0.47705,-0.27828 1.08937,-0.117143 1.36765,0.35991 l 0,0 c 0.27828,0.47705 0.11714,1.08937 -0.35991,1.36765 l -4.51924,2.63622 4.51924,2.63622 0,0 c 0.47705,0.27828 0.63818,0.8906 0.3599,1.36765 0,0 0,0 0,0 l 0,0 c -0.27828,0.47705 -0.89059,0.63819 -1.36765,0.35991 l -7.48076,-4.36379 z"
                 inkscape:connector-curvature="0"
                 id="path38"
                 style="fill:#a74a44;fill-opacity:1;fill-rule:evenodd;stroke:none" /><g
                 transform="translate(80.49071,44.50575)"
                 id="g40"><text
                   transform="matrix(1,0,0,-1,19.446,-14)"
                   id="text42"><tspan
                     x="0 9.3380003"
                     y="0"
                     id="tspan44"
                     style="font-size:14px;font-variant:normal;font-weight:normal;writing-mode:lr-tb;fill:#000000;fill-opacity:1;fill-rule:nonzero;stroke:none;font-family:ArialMT;-inkscape-font-specification:ArialMT">B </tspan></text>
</g><g
                 transform="matrix(7.874016e-5,0,0,-7.874016e-5,0.04338583,57.81654)"
                 id="g46"><path
                   d="M -9.149313e-6,-0.00656128 1969489,-0.00656128"
                   inkscape:connector-curvature="0"
                   id="path48"
                   style="fill:none;stroke:#89a24c;stroke-width:25400;stroke-linecap:butt;stroke-linejoin:round;stroke-miterlimit:10;stroke-opacity:1;stroke-dasharray:none" /></g><path
                 d="m 157.1059,57.81654 -7.4808,-4.36378 0,0 c -0.477,-0.27828 -1.0893,-0.11715 -1.3676,0.3599 l 0,0 c -0.2783,0.47705 -0.1172,1.08937 0.3599,1.36765 l 4.5192,2.63623 -4.5192,2.63622 0,0 c -0.4771,0.27828 -0.6382,0.8906 -0.3599,1.36765 0,0 0,0 0,0 l 0,0 c 0.2783,0.47705 0.8906,0.63819 1.3676,0.3599 l 7.4808,-4.36377 z"
                 inkscape:connector-curvature="0"
                 id="path50"
                 style="fill:#89a24c;fill-opacity:1;fill-rule:evenodd;stroke:none" /><g
                 transform="translate(80.49071,88.16174)"
                 id="g52"><text
                   transform="matrix(1,0,0,-1,18.676,-14)"
                   id="text54"><tspan
                     x="0 8.5651999"
                     y="0"
                     id="tspan56"
                     style="font-size:14px;font-variant:normal;font-weight:normal;writing-mode:lr-tb;fill:#000000;fill-opacity:1;fill-rule:nonzero;stroke:none;font-family:ArialMT;-inkscape-font-specification:ArialMT">A </tspan></text>
</g><g
                 transform="matrix(-7.874016e-5,0,0,-7.874016e-5,158.5202,69.85559)"
                 id="g58"><path
                   d="M 0.00787354,-0.00341797 4565.039,887044"
                   inkscape:connector-curvature="0"
                   id="path60"
                   style="fill:none;stroke:#cbcbcb;stroke-width:25400;stroke-linecap:butt;stroke-linejoin:round;stroke-miterlimit:10;stroke-opacity:1;stroke-dasharray:76200, 25400;stroke-dashoffset:0" /></g></g></g></g></g></g></g></svg>