<?xml version="1.0" encoding="UTF-8" standalone="no"?>
<!-- Created with Inkscape (http://www.inkscape.org/) -->

<svg
   xmlns:dc="http://purl.org/dc/elements/1.1/"
   xmlns:cc="http://creativecommons.org/ns#"
   xmlns:rdf="http://www.w3.org/1999/02/22-rdf-syntax-ns#"
   xmlns:svg="http://www.w3.org/2000/svg"
   xmlns="http://www.w3.org/2000/svg"
   xmlns:inkscape="http://www.inkscape.org/namespaces/inkscape"
   version="1.1"
   width="305"
   height="46.25"
   id="svg2"
   xml:space="preserve"><metadata
     id="metadata8"><rdf:RDF><cc:Work
         rdf:about=""><dc:format>image/svg+xml</dc:format><dc:type
           rdf:resource="http://purl.org/dc/dcmitype/StillImage" /></cc:Work></rdf:RDF></metadata><defs
     id="defs6"><clipPath
       id="clipPath18"><path
         d="M 0,0 252,0 252,48 0,48 0,0 z"
         inkscape:connector-curvature="0"
         id="path20" /></clipPath><clipPath
       id="clipPath28"><path
         d="M 0,0 252,0 252,48 0,48 0,0 z"
         inkscape:connector-curvature="0"
         id="path30" /></clipPath></defs><g
     transform="matrix(1.25,0,0,-1.25,0,46.25)"
     id="g10"><g
       transform="translate(-8,-3)"
       id="g12"><g
         id="g14"><g
           clip-path="url(#clipPath18)"
           id="g16"><g
             id="g22" /><g
             id="g24"><g
               clip-path="url(#clipPath28)"
               id="g26"><path
                 d="M 0,48 252,48 252,0 0,0 0,48 z"
                 inkscape:connector-curvature="0"
                 id="path32"
                 style="fill:#ffffff;fill-opacity:0;fill-rule:evenodd;stroke:none" /><g
                 transform="matrix(-7.874016e-5,0,0,7.874016e-5,251.3841,8.520393)"
                 id="g34"><path
                   d="M 0.00317383,0.00363159 1514077,2661.699"
                   inkscape:connector-curvature="0"
                   id="path36"
                   style="fill:none;stroke:#a74a44;stroke-width:25400;stroke-linecap:butt;stroke-linejoin:round;stroke-miterlimit:10;stroke-opacity:1;stroke-dasharray:none" /></g><path
                 d="m 130.1808,8.733464 7.4884,4.350626 0,0 c 0.4776,0.27744 1.0896,0.11523 1.367,-0.36231 l 0,0 c 0.2775,-0.47755 0.1153,-1.08958 -0.3623,-1.36702 l -4.5238,-2.628273 4.5145,-2.644162 0,0 c 0.4766,-0.279118 0.6367,-0.891718 0.3576,-1.36828 0,0 0,0 0,0 l 0,0 C 138.743,4.237483 138.1304,4.077424 137.6539,4.356542 l -7.4731,4.376922 z"
                 inkscape:connector-curvature="0"
                 id="path38"
                 style="fill:#a74a44;fill-opacity:1;fill-rule:evenodd;stroke:none" /><g
                 transform="translate(172.1093,43.86449)"
                 id="g40"><text
                   transform="matrix(1,0,0,-1,14.7868,-14)"
                   id="text42"><tspan
                     x="0 8.5651999"
                     y="0"
                     id="tspan44"
                     style="font-size:14px;font-variant:normal;font-weight:normal;writing-mode:lr-tb;fill:#000000;fill-opacity:1;fill-rule:nonzero;stroke:none;font-family:ArialMT;-inkscape-font-specification:ArialMT">A </tspan></text>
</g><g
                 transform="matrix(-7.874016e-5,0,0,7.874016e-5,130.3723,8.426613)"
                 id="g46"><path
                   d="M -0.00598145,-0.00112915 1523804,2661.973"
                   inkscape:connector-curvature="0"
                   id="path48"
                   style="fill:none;stroke:#a74a44;stroke-width:25400;stroke-linecap:butt;stroke-linejoin:round;stroke-miterlimit:10;stroke-opacity:1;stroke-dasharray:none" /></g><path
                 d="m 8.403074,8.639685 7.488376,4.350705 0,0 c 0.47754,0.27744 1.08957,0.11524 1.36702,-0.3623 l 0,0 c 0.27745,-0.47754 0.11524,-1.08957 -0.3623,-1.36702 l -4.52383,-2.62832 4.51462,-2.644112 0,0 c 0.47657,-0.279113 0.63663,-0.891712 0.35752,-1.368277 0,0 0,0 0,0 l 0,0 C 16.96537,4.143796 16.35277,3.983731 15.8762,4.262844 L 8.403074,8.639685 z"
                 inkscape:connector-curvature="0"
                 id="path50"
                 style="fill:#a74a44;fill-opacity:1;fill-rule:evenodd;stroke:none" /><g
                 transform="translate(50.82331,43.76291)"
                 id="g52"><text
                   transform="matrix(1,0,0,-1,15.5568,-14)"
                   id="text54"><tspan
                     x="0 9.3380003"
                     y="0"
                     id="tspan56"
                     style="font-size:14px;font-variant:normal;font-weight:normal;writing-mode:lr-tb;fill:#000000;fill-opacity:1;fill-rule:nonzero;stroke:none;font-family:ArialMT;-inkscape-font-specification:ArialMT">B </tspan></text>
</g></g></g></g></g></g></g></svg>