<?xml version="1.0" encoding="UTF-8" standalone="no"?>
<!-- Created with Inkscape (http://www.inkscape.org/) -->

<svg
   xmlns:dc="http://purl.org/dc/elements/1.1/"
   xmlns:cc="http://creativecommons.org/ns#"
   xmlns:rdf="http://www.w3.org/1999/02/22-rdf-syntax-ns#"
   xmlns:svg="http://www.w3.org/2000/svg"
   xmlns="http://www.w3.org/2000/svg"
   xmlns:inkscape="http://www.inkscape.org/namespaces/inkscape"
   version="1.1"
   width="305"
   height="46.25"
   id="svg2"
   xml:space="preserve"><metadata
     id="metadata8"><rdf:RDF><cc:Work
         rdf:about=""><dc:format>image/svg+xml</dc:format><dc:type
           rdf:resource="http://purl.org/dc/dcmitype/StillImage" /></cc:Work></rdf:RDF></metadata><defs
     id="defs6"><clipPath
       id="clipPath18"><path
         d="M 0,0 252,0 252,47 0,47 0,0 z"
         inkscape:connector-curvature="0"
         id="path20" /></clipPath><clipPath
       id="clipPath28"><path
         d="M 0,0 252,0 252,47 0,47 0,0 z"
         inkscape:connector-curvature="0"
         id="path30" /></clipPath></defs><g
     transform="matrix(1.25,0,0,-1.25,0,46.25)"
     id="g10"><g
       transform="translate(-8,-3)"
       id="g12"><g
         id="g14"><g
           clip-path="url(#clipPath18)"
           id="g16"><g
             id="g22" /><g
             id="g24"><g
               clip-path="url(#clipPath28)"
               id="g26"><path
                 d="M 0,47 252,47 252,0 0,0 0,47 z"
                 inkscape:connector-curvature="0"
                 id="path32"
                 style="fill:#ffffff;fill-opacity:0;fill-rule:evenodd;stroke:none" /><g
                 transform="matrix(-7.874016e-5,0,0,-7.874016e-5,130.3722,8.002522)"
                 id="g34"><path
                   d="M -0.03704834,1.983643e-4 1523803,0.9812431"
                   inkscape:connector-curvature="0"
                   id="path36"
                   style="fill:none;stroke:#a74a44;stroke-width:25400;stroke-linecap:butt;stroke-linejoin:round;stroke-miterlimit:10;stroke-opacity:1;stroke-dasharray:none" /></g><path
                 d="m 8.403072,8.002443 7.480768,-4.363774 0,0 c 0.47705,-0.27828 1.08937,-0.117143 1.36765,0.359909 l 0,0 c 0.27828,0.477052 0.11714,1.089369 -0.35991,1.36765 l -4.51924,2.636217 4.51924,2.636225 0,0 c 0.47705,0.27828 0.63818,0.8906 0.3599,1.36765 0,0 0,0 0,0 l 0,0 c -0.27828,0.47705 -0.89059,0.63819 -1.36765,0.35991 L 8.403072,8.002443 z"
                 inkscape:connector-curvature="0"
                 id="path38"
                 style="fill:#a74a44;fill-opacity:1;fill-rule:evenodd;stroke:none" /><g
                 transform="translate(50.82331,43.12575)"
                 id="g40"><text
                   transform="matrix(1,0,0,-1,14.7868,-14)"
                   id="text42"><tspan
                     x="0 8.5651999"
                     y="0"
                     id="tspan44"
                     style="font-size:14px;font-variant:normal;font-weight:normal;writing-mode:lr-tb;fill:#000000;fill-opacity:1;fill-rule:nonzero;stroke:none;font-family:ArialMT;-inkscape-font-specification:ArialMT">A </tspan></text>
</g><g
                 transform="matrix(-7.874016e-5,0,0,-7.874016e-5,251.3841,8.065117)"
                 id="g46"><path
                   d="M 0.00317383,-3.051758e-5 1514077,0.9810143"
                   inkscape:connector-curvature="0"
                   id="path48"
                   style="fill:none;stroke:#a74a44;stroke-width:25400;stroke-linecap:butt;stroke-linejoin:round;stroke-miterlimit:10;stroke-opacity:1;stroke-dasharray:none" /></g><path
                 d="m 130.1808,8.065039 7.4807,-4.363775 0,0 c 0.4771,-0.27828 1.0894,-0.117143 1.3677,0.359909 l 0,0 c 0.2783,0.477052 0.1171,1.08937 -0.3599,1.36765 l -4.5192,2.636218 4.5192,2.636229 0,0 c 0.477,0.27828 0.6382,0.89059 0.3599,1.36765 0,0 0,0 0,0 l 0,0 c -0.2783,0.47705 -0.8906,0.63818 -1.3677,0.3599 l -7.4807,-4.363781 z"
                 inkscape:connector-curvature="0"
                 id="path50"
                 style="fill:#a74a44;fill-opacity:1;fill-rule:evenodd;stroke:none" /><g
                 transform="translate(172.2181,43.19614)"
                 id="g52"><text
                   transform="matrix(1,0,0,-1,15.5568,-14)"
                   id="text54"><tspan
                     x="0 9.3380003"
                     y="0"
                     id="tspan56"
                     style="font-size:14px;font-variant:normal;font-weight:normal;writing-mode:lr-tb;fill:#000000;fill-opacity:1;fill-rule:nonzero;stroke:none;font-family:ArialMT;-inkscape-font-specification:ArialMT">B </tspan></text>
</g></g></g></g></g></g></g></svg>