<?xml version="1.0" encoding="UTF-8" standalone="no"?>
<!-- Created with Inkscape (http://www.inkscape.org/) -->

<svg
   xmlns:dc="http://purl.org/dc/elements/1.1/"
   xmlns:cc="http://creativecommons.org/ns#"
   xmlns:rdf="http://www.w3.org/1999/02/22-rdf-syntax-ns#"
   xmlns:svg="http://www.w3.org/2000/svg"
   xmlns="http://www.w3.org/2000/svg"
   xmlns:inkscape="http://www.inkscape.org/namespaces/inkscape"
   version="1.1"
   width="111.25"
   height="156.25"
   id="svg2"
   xml:space="preserve"><metadata
     id="metadata8"><rdf:RDF><cc:Work
         rdf:about=""><dc:format>image/svg+xml</dc:format><dc:type
           rdf:resource="http://purl.org/dc/dcmitype/StillImage" /></cc:Work></rdf:RDF></metadata><defs
     id="defs6"><clipPath
       id="clipPath18"><path
         d="M 0,0 89,0 89,125 0,125 0,0 z"
         inkscape:connector-curvature="0"
         id="path20" /></clipPath><clipPath
       id="clipPath28"><path
         d="M 0,0 97,0 97,138 0,138 0,0 z"
         inkscape:connector-curvature="0"
         id="path30" /></clipPath><clipPath
       id="clipPath38"><path
         d="M 0,0 97,0 97,138 0,138 0,0 z"
         inkscape:connector-curvature="0"
         id="path40" /></clipPath></defs><g
     transform="matrix(1.25,0,0,-1.25,0,156.25)"
     id="g10"><g
       id="g12"><g
         id="g14"><g
           clip-path="url(#clipPath18)"
           id="g16"><g
             transform="translate(-8,-6)"
             id="g22"><g
               id="g24"><g
                 clip-path="url(#clipPath28)"
                 id="g26"><g
                   id="g32" /><g
                   id="g34"><g
                     clip-path="url(#clipPath38)"
                     id="g36"><path
                       d="M 0,138 97,138 97,0 0,0 0,138 z"
                       inkscape:connector-curvature="0"
                       id="path42"
                       style="fill:#ffffff;fill-opacity:0;fill-rule:evenodd;stroke:none" /><g
                       transform="matrix(7.874016e-5,0,0,7.874016e-5,39.23291,8.066528)"
                       id="g44"><path
                         d="M 0.00743103,0.00341797 0.00743103,1514670"
                         inkscape:connector-curvature="0"
                         id="path46"
                         style="fill:none;stroke:#4675a3;stroke-width:25400;stroke-linecap:butt;stroke-linejoin:round;stroke-miterlimit:10;stroke-opacity:1;stroke-dasharray:none" /></g><path
                       d="m 39.23291,129.3165 -4.36377,-7.4807 0,0 c -0.27829,-0.4771 -0.11715,-1.0894 0.3599,-1.3677 l 0,0 c 0.47705,-0.2783 1.08937,-0.1171 1.36765,0.3599 l 2.63622,4.5193 2.63623,-4.5193 0,0 c 0.27828,-0.477 0.8906,-0.6382 1.36765,-0.3599 0,0 0,0 0,0 l 0,0 c 0.47705,0.2783 0.63818,0.8906 0.3599,1.3677 l -4.36378,7.4807 z"
                       inkscape:connector-curvature="0"
                       id="path48"
                       style="fill:#4675a3;fill-opacity:1;fill-rule:evenodd;stroke:none" /><g
                       transform="matrix(0,1,-1,0,4.366496,50.89918)"
                       id="g50"><text
                         transform="matrix(1,0,0,-1,14.7868,-14)"
                         id="text52"><tspan
                           x="0 8.5651999"
                           y="0"
                           id="tspan54"
                           style="font-size:14px;font-variant:normal;font-weight:normal;writing-mode:lr-tb;fill:#000000;fill-opacity:1;fill-rule:nonzero;stroke:none;font-family:ArialMT;-inkscape-font-specification:ArialMT">A </tspan></text>
</g><g
                       transform="matrix(7.874016e-5,0,0,-7.874016e-5,87.77599,129.3286)"
                       id="g56"><path
                         d="M 0.01861572,-0.00109863 0.01861572,1514670"
                         inkscape:connector-curvature="0"
                         id="path58"
                         style="fill:none;stroke:#4675a3;stroke-width:25400;stroke-linecap:butt;stroke-linejoin:round;stroke-miterlimit:10;stroke-opacity:1;stroke-dasharray:none" /></g><path
                       d="m 87.77599,8.078582 -4.36378,7.480768 0,0 c -0.27828,0.47705 -0.11715,1.08937 0.35991,1.36765 l 0,0 c 0.47705,0.27828 1.08936,0.11714 1.36764,-0.35991 l 2.63623,-4.51924 2.63622,4.51924 0,0 c 0.27828,0.47705 0.89059,0.63819 1.36764,0.35991 0,0 0,0 0,0 l 0,0 c 0.47706,-0.27828 0.6382,-0.8906 0.35991,-1.36765 L 87.77599,8.078582 z"
                       inkscape:connector-curvature="0"
                       id="path60"
                       style="fill:#4675a3;fill-opacity:1;fill-rule:evenodd;stroke:none" /><g
                       transform="matrix(0,1,-1,0,52.90956,50.89918)"
                       id="g62"><text
                         transform="matrix(1,0,0,-1,15.5568,-14)"
                         id="text64"><tspan
                           x="0 9.3380003"
                           y="0"
                           id="tspan66"
                           style="font-size:14px;font-variant:normal;font-weight:normal;writing-mode:lr-tb;fill:#000000;fill-opacity:1;fill-rule:nonzero;stroke:none;font-family:ArialMT;-inkscape-font-specification:ArialMT">B </tspan></text>
</g><g
                       transform="matrix(0,7.874016e-5,7.874016e-5,0,27.07858,129.3848)"
                       id="g68"><path
                         d="M 0.03601074,0.00109863 1.004944,882266"
                         inkscape:connector-curvature="0"
                         id="path70"
                         style="fill:none;stroke:#cbcbcb;stroke-width:25400;stroke-linecap:butt;stroke-linejoin:round;stroke-miterlimit:10;stroke-opacity:1;stroke-dasharray:76200, 25400;stroke-dashoffset:0" /></g><g
                       transform="matrix(0,7.874016e-5,7.874016e-5,0,27.07858,7.897873)"
                       id="g72"><path
                         d="M 0.00177002,0.00109863 1.000982,882266"
                         inkscape:connector-curvature="0"
                         id="path74"
                         style="fill:none;stroke:#cbcbcb;stroke-width:25400;stroke-linecap:butt;stroke-linejoin:round;stroke-miterlimit:10;stroke-opacity:1;stroke-dasharray:76200, 25400;stroke-dashoffset:0" /></g></g></g></g></g></g></g></g></g></g></svg>