<?xml version="1.0" encoding="UTF-8" standalone="no"?>
<!-- Created with Inkscape (http://www.inkscape.org/) -->

<svg
   xmlns:dc="http://purl.org/dc/elements/1.1/"
   xmlns:cc="http://creativecommons.org/ns#"
   xmlns:rdf="http://www.w3.org/1999/02/22-rdf-syntax-ns#"
   xmlns:svg="http://www.w3.org/2000/svg"
   xmlns="http://www.w3.org/2000/svg"
   xmlns:inkscape="http://www.inkscape.org/namespaces/inkscape"
   version="1.1"
   width="187.5"
   height="81.25"
   id="svg2"
   xml:space="preserve"><metadata
     id="metadata8"><rdf:RDF><cc:Work
         rdf:about=""><dc:format>image/svg+xml</dc:format><dc:type
           rdf:resource="http://purl.org/dc/dcmitype/StillImage" /></cc:Work></rdf:RDF></metadata><defs
     id="defs6"><clipPath
       id="clipPath18"><path
         d="M 0,0 150,0 150,65 0,65 0,0 z"
         inkscape:connector-curvature="0"
         id="path20" /></clipPath><clipPath
       id="clipPath28"><path
         d="M 0,0 158,0 158,76 0,76 0,0 z"
         inkscape:connector-curvature="0"
         id="path30" /></clipPath><clipPath
       id="clipPath38"><path
         d="M 0,0 158,0 158,76 0,76 0,0 z"
         inkscape:connector-curvature="0"
         id="path40" /></clipPath></defs><g
     transform="matrix(1.25,0,0,-1.25,0,81.25)"
     id="g10"><g
       id="g12"><g
         id="g14"><g
           clip-path="url(#clipPath18)"
           id="g16"><g
             transform="translate(-8,-4)"
             id="g22"><g
               id="g24"><g
                 clip-path="url(#clipPath28)"
                 id="g26"><g
                   id="g32" /><g
                   id="g34"><g
                     clip-path="url(#clipPath38)"
                     id="g36"><path
                       d="M 0,76 158,76 158,0 0,0 0,76 z"
                       inkscape:connector-curvature="0"
                       id="path42"
                       style="fill:#ffffff;fill-opacity:0;fill-rule:evenodd;stroke:none" /><g
                       transform="matrix(7.874016e-5,0,0,-7.874016e-5,49.18866,45.31)"
                       id="g44"><path
                         d="m 0.0402832,-0.03149414 874907.6597168,0"
                         inkscape:connector-curvature="0"
                         id="path46"
                         style="fill:none;stroke:#89a24c;stroke-width:25400;stroke-linecap:butt;stroke-linejoin:round;stroke-miterlimit:10;stroke-opacity:1;stroke-dasharray:none" /></g><path
                       d="m 120.0637,45.31 -7.4808,-4.36378 0,0 c -0.4771,-0.27828 -1.0894,-0.11715 -1.3677,0.35991 l 0,0 c -0.2782,0.47705 -0.1171,1.08937 0.36,1.36764 l 4.5192,2.63623 -4.5192,2.63622 0,0 c -0.4771,0.27828 -0.6382,0.8906 -0.36,1.36765 0,0 0,0 0,0 l 0,0 c 0.2783,0.47705 0.8906,0.63819 1.3677,0.3599 L 120.0637,45.31 z"
                       inkscape:connector-curvature="0"
                       id="path48"
                       style="fill:#89a24c;fill-opacity:1;fill-rule:evenodd;stroke:none" /><g
                       transform="translate(74.43858,72.3352)"
                       id="g50"><text
                         transform="matrix(1,0,0,-1,3.1178,-14)"
                         id="text52"><tspan
                           x="0 8.5637999"
                           y="0"
                           id="tspan54"
                           style="font-size:14px;font-variant:normal;font-weight:normal;writing-mode:lr-tb;fill:#000000;fill-opacity:1;fill-rule:nonzero;stroke:none;font-family:ArialMT;-inkscape-font-specification:ArialMT">A </tspan></text>
</g><g
                       transform="matrix(-7.874016e-5,0,0,-7.874016e-5,157.0472,8.801888)"
                       id="g56"><path
                         d="M -0.08837891,-0.00265503 1860287,0.9783897"
                         inkscape:connector-curvature="0"
                         id="path58"
                         style="fill:none;stroke:#a74a44;stroke-width:25400;stroke-linecap:butt;stroke-linejoin:round;stroke-miterlimit:10;stroke-opacity:1;stroke-dasharray:none" /></g><path
                       d="m 8.583302,8.801809 7.480768,-4.363774 0,0 c 0.47705,-0.278281 1.08937,-0.117144 1.36765,0.359908 l 0,0 c 0.27828,0.477052 0.11714,1.08937 -0.35991,1.36765 l -4.51924,2.636218 4.51924,2.636229 0,0 c 0.47705,0.27828 0.63819,0.89059 0.35991,1.36765 0,0 0,0 0,0 l 0,0 c -0.27829,0.47705 -0.89061,0.63818 -1.36766,0.3599 L 8.583302,8.801809 z"
                       inkscape:connector-curvature="0"
                       id="path60"
                       style="fill:#a74a44;fill-opacity:1;fill-rule:evenodd;stroke:none" /><g
                       transform="translate(53.59221,34.18882)"
                       id="g62"><text
                         transform="matrix(1,0,0,-1,11.6676,-14)"
                         id="text64"><tspan
                           x="0 9.3380003"
                           y="0"
                           id="tspan66"
                           style="font-size:14px;font-variant:normal;font-weight:normal;writing-mode:lr-tb;fill:#000000;fill-opacity:1;fill-rule:nonzero;stroke:none;font-family:ArialMT;-inkscape-font-specification:ArialMT">B </tspan></text>
</g></g></g></g></g></g></g></g></g></g></svg>