<?xml version="1.0" encoding="UTF-8" standalone="no"?>
<!-- Created with Inkscape (http://www.inkscape.org/) -->

<svg
   xmlns:dc="http://purl.org/dc/elements/1.1/"
   xmlns:cc="http://creativecommons.org/ns#"
   xmlns:rdf="http://www.w3.org/1999/02/22-rdf-syntax-ns#"
   xmlns:svg="http://www.w3.org/2000/svg"
   xmlns="http://www.w3.org/2000/svg"
   xmlns:inkscape="http://www.inkscape.org/namespaces/inkscape"
   version="1.1"
   width="91.25"
   height="183.75"
   id="svg2"
   xml:space="preserve"><metadata
     id="metadata8"><rdf:RDF><cc:Work
         rdf:about=""><dc:format>image/svg+xml</dc:format><dc:type
           rdf:resource="http://purl.org/dc/dcmitype/StillImage" /></cc:Work></rdf:RDF></metadata><defs
     id="defs6"><clipPath
       id="clipPath18"><path
         d="M 0,0 84,0 84,155 0,155 0,0 z"
         inkscape:connector-curvature="0"
         id="path20" /></clipPath><clipPath
       id="clipPath28"><path
         d="M 0,0 84,0 84,155 0,155 0,0 z"
         inkscape:connector-curvature="0"
         id="path30" /></clipPath></defs><g
     transform="matrix(1.25,0,0,-1.25,0,183.75)"
     id="g10"><g
       transform="translate(-7,0)"
       id="g12"><g
         id="g14"><g
           clip-path="url(#clipPath18)"
           id="g16"><g
             id="g22" /><g
             id="g24"><g
               clip-path="url(#clipPath28)"
               id="g26"><path
                 d="M 0,155 84,155 84,0 0,0 0,155 z"
                 inkscape:connector-curvature="0"
                 id="path32"
                 style="fill:#ffffff;fill-opacity:0;fill-rule:evenodd;stroke:none" /><g
                 transform="matrix(0,7.874016e-5,7.874016e-5,0,33.14413,0.585083)"
                 id="g34"><path
                   d="M 0,0.00842285 1824770,0.977356"
                   inkscape:connector-curvature="0"
                   id="path36"
                   style="fill:none;stroke:#4675a3;stroke-width:25400;stroke-linecap:butt;stroke-linejoin:round;stroke-miterlimit:10;stroke-opacity:1;stroke-dasharray:none" /></g><path
                 d="m 33.14421,146.2524 4.36378,-7.4807 0,0 c 0.27828,-0.4771 0.11714,-1.0894 -0.35991,-1.3677 l 0,0 c -0.47705,-0.2783 -1.08937,-0.1172 -1.36765,0.3599 l -2.63622,4.5192 -2.63622,-4.5192 0,0 c -0.27828,-0.4771 -0.8906,-0.6382 -1.36765,-0.3599 0,0 0,0 0,0 l 0,0 c -0.47706,0.2783 -0.63819,0.8906 -0.35991,1.3677 l 4.36378,7.4807 z"
                 inkscape:connector-curvature="0"
                 id="path38"
                 style="fill:#4675a3;fill-opacity:1;fill-rule:evenodd;stroke:none" /><g
                 transform="matrix(0,1,-1,0,3.653269,59.45799)"
                 id="g40"><text
                   transform="matrix(1,0,0,-1,3.1178,-14)"
                   id="text42"><tspan
                     x="0 8.5637999"
                     y="0"
                     id="tspan44"
                     style="font-size:14px;font-variant:normal;font-weight:normal;writing-mode:lr-tb;fill:#000000;fill-opacity:1;fill-rule:nonzero;stroke:none;font-family:ArialMT;-inkscape-font-specification:ArialMT">A </tspan></text>
</g><g
                 transform="matrix(0,-7.874016e-5,7.874016e-5,0,75.09145,106.7037)"
                 id="g46"><path
                   d="M 0.02996826,0.02261353 874924.1,0.9915466"
                   inkscape:connector-curvature="0"
                   id="path48"
                   style="fill:none;stroke:#4675a3;stroke-width:25400;stroke-linecap:butt;stroke-linejoin:round;stroke-miterlimit:10;stroke-opacity:1;stroke-dasharray:none" /></g><path
                 d="m 75.09153,35.82736 4.36377,7.48077 0,0 c 0.27828,0.47705 0.11715,1.08937 -0.35991,1.36765 l 0,0 c -0.47705,0.27828 -1.08937,0.11714 -1.36764,-0.35991 l -2.63622,-4.51924 -2.63623,4.51923 0,0 c -0.27828,0.47706 -0.8906,0.63819 -1.36765,0.35991 0,0 0,0 0,0 l 0,0 c -0.47705,-0.27828 -0.63819,-0.8906 -0.3599,-1.36765 l 4.36378,-7.48076 z"
                 inkscape:connector-curvature="0"
                 id="path50"
                 style="fill:#4675a3;fill-opacity:1;fill-rule:evenodd;stroke:none" /><g
                 transform="matrix(0,1,-1,0,45.60059,59.45815)"
                 id="g52"><text
                   transform="matrix(1,0,0,-1,3.8892,-14)"
                   id="text54"><tspan
                     x="0 9.3380003"
                     y="0"
                     id="tspan56"
                     style="font-size:14px;font-variant:normal;font-weight:normal;writing-mode:lr-tb;fill:#000000;fill-opacity:1;fill-rule:nonzero;stroke:none;font-family:ArialMT;-inkscape-font-specification:ArialMT">B </tspan></text>
</g></g></g></g></g></g></g></svg>