<?xml version="1.0" encoding="UTF-8" standalone="no"?>
<!-- Created with Inkscape (http://www.inkscape.org/) -->

<svg
   xmlns:dc="http://purl.org/dc/elements/1.1/"
   xmlns:cc="http://creativecommons.org/ns#"
   xmlns:rdf="http://www.w3.org/1999/02/22-rdf-syntax-ns#"
   xmlns:svg="http://www.w3.org/2000/svg"
   xmlns="http://www.w3.org/2000/svg"
   xmlns:inkscape="http://www.inkscape.org/namespaces/inkscape"
   version="1.1"
   width="110"
   height="200"
   id="svg2"
   xml:space="preserve"><metadata
     id="metadata8"><rdf:RDF><cc:Work
         rdf:about=""><dc:format>image/svg+xml</dc:format><dc:type
           rdf:resource="http://purl.org/dc/dcmitype/StillImage" /></cc:Work></rdf:RDF></metadata><defs
     id="defs6"><clipPath
       id="clipPath18"><path
         d="M 0,0 88,0 88,160 0,160 0,0 z"
         inkscape:connector-curvature="0"
         id="path20" /></clipPath><clipPath
       id="clipPath28"><path
         d="M 0,0 96,0 96,174 0,174 0,0 z"
         inkscape:connector-curvature="0"
         id="path30" /></clipPath><clipPath
       id="clipPath38"><path
         d="M 0,0 96,0 96,174 0,174 0,0 z"
         inkscape:connector-curvature="0"
         id="path40" /></clipPath></defs><g
     transform="matrix(1.25,0,0,-1.25,0,200)"
     id="g10"><g
       id="g12"><g
         id="g14"><g
           clip-path="url(#clipPath18)"
           id="g16"><g
             transform="translate(-7,-6)"
             id="g22"><g
               id="g24"><g
                 clip-path="url(#clipPath28)"
                 id="g26"><g
                   id="g32" /><g
                   id="g34"><g
                     clip-path="url(#clipPath38)"
                     id="g36"><path
                       d="M 0,174 96,174 96,0 0,0 0,174 z"
                       inkscape:connector-curvature="0"
                       id="path42"
                       style="fill:#ffffff;fill-opacity:0;fill-rule:evenodd;stroke:none" /><g
                       transform="matrix(0,7.874016e-5,7.874016e-5,0,36.26075,8.078384)"
                       id="g44"><path
                         d="M 0.00531006,-0.00857544 1969190,0.9603577"
                         inkscape:connector-curvature="0"
                         id="path46"
                         style="fill:none;stroke:#4675a3;stroke-width:25400;stroke-linecap:butt;stroke-linejoin:round;stroke-miterlimit:10;stroke-opacity:1;stroke-dasharray:none" /></g><path
                       d="m 36.26083,165.1174 4.36377,-7.4808 0,0 c 0.27828,-0.4771 0.11714,-1.0894 -0.35991,-1.3677 l 0,0 c -0.47705,-0.2782 -1.08937,-0.1171 -1.36764,0.3599 l -2.63622,4.5193 -2.63623,-4.5193 0,0 c -0.27828,-0.477 -0.8906,-0.6381 -1.36765,-0.3598 0,0 0,0 0,0 l 0,0 c -0.47705,0.2782 -0.63819,0.8905 -0.35991,1.3676 l 4.36379,7.4808 z"
                       inkscape:connector-curvature="0"
                       id="path48"
                       style="fill:#4675a3;fill-opacity:1;fill-rule:evenodd;stroke:none" /><g
                       transform="matrix(0,1,-1,0,3.927599,47.92555)"
                       id="g50"><text
                         transform="matrix(1,0,0,-1,22.5652,-14)"
                         id="text52"><tspan
                           x="0 8.5651999"
                           y="0"
                           id="tspan54"
                           style="font-size:14px;font-variant:normal;font-weight:normal;writing-mode:lr-tb;fill:#000000;fill-opacity:1;fill-rule:nonzero;stroke:none;font-family:ArialMT;-inkscape-font-specification:ArialMT">A </tspan></text>
</g><g
                       transform="matrix(0,-7.874016e-5,7.874016e-5,0,83.8924,128.8941)"
                       id="g56"><path
                         d="M -0.03948975,0.01364136 1509154,975.7292"
                         inkscape:connector-curvature="0"
                         id="path58"
                         style="fill:none;stroke:#4675a3;stroke-width:25400;stroke-linecap:butt;stroke-linejoin:round;stroke-miterlimit:10;stroke-opacity:1;stroke-dasharray:none" /></g><path
                       d="m 83.97051,8.078388 4.35894,7.483582 0,0 c 0.27798,0.47723 0.11644,1.08945 -0.36078,1.36742 l 0,0 c -0.47724,0.27797 -1.08945,0.11644 -1.36742,-0.36079 l -2.6333,-4.52094 -2.63915,4.51753 0,0 c -0.27858,0.47687 -0.891,0.63761 -1.36788,0.35902 0,0 0,0 0,0 l 0,0 C 79.48405,16.64562 79.32331,16.0332 79.6019,15.55633 l 4.36861,-7.477942 z"
                       inkscape:connector-curvature="0"
                       id="path60"
                       style="fill:#4675a3;fill-opacity:1;fill-rule:evenodd;stroke:none" /><g
                       transform="matrix(0,1,-1,0,51.55949,48.83996)"
                       id="g62"><text
                         transform="matrix(1,0,0,-1,23.3352,-14)"
                         id="text64"><tspan
                           x="0 9.3380003"
                           y="0"
                           id="tspan66"
                           style="font-size:14px;font-variant:normal;font-weight:normal;writing-mode:lr-tb;fill:#000000;fill-opacity:1;fill-rule:nonzero;stroke:none;font-family:ArialMT;-inkscape-font-specification:ArialMT">B </tspan></text>
</g><g
                       transform="matrix(0,7.874016e-5,7.874016e-5,0,24.56201,7.719009)"
                       id="g68"><path
                         d="M 0.00531006,3.814697e-4 1.004522,897879.1"
                         inkscape:connector-curvature="0"
                         id="path70"
                         style="fill:none;stroke:#cbcbcb;stroke-width:25400;stroke-linecap:butt;stroke-linejoin:round;stroke-miterlimit:10;stroke-opacity:1;stroke-dasharray:76200, 25400;stroke-dashoffset:0" /></g></g></g></g></g></g></g></g></g></g></svg>