<?xml version="1.0" encoding="UTF-8" standalone="no"?>
<!-- Created with Inkscape (http://www.inkscape.org/) -->

<svg
   xmlns:dc="http://purl.org/dc/elements/1.1/"
   xmlns:cc="http://creativecommons.org/ns#"
   xmlns:rdf="http://www.w3.org/1999/02/22-rdf-syntax-ns#"
   xmlns:svg="http://www.w3.org/2000/svg"
   xmlns="http://www.w3.org/2000/svg"
   xmlns:inkscape="http://www.inkscape.org/namespaces/inkscape"
   version="1.1"
   width="198.75"
   height="110"
   id="svg2"
   xml:space="preserve"><metadata
     id="metadata8"><rdf:RDF><cc:Work
         rdf:about=""><dc:format>image/svg+xml</dc:format><dc:type
           rdf:resource="http://purl.org/dc/dcmitype/StillImage" /></cc:Work></rdf:RDF></metadata><defs
     id="defs6"><clipPath
       id="clipPath18"><path
         d="M 0,0 159,0 159,88 0,88 0,0 z"
         inkscape:connector-curvature="0"
         id="path20" /></clipPath><clipPath
       id="clipPath28"><path
         d="M 0,0 174,0 174,96 0,96 0,0 z"
         inkscape:connector-curvature="0"
         id="path30" /></clipPath><clipPath
       id="clipPath38"><path
         d="M 0,0 174,0 174,96 0,96 0,0 z"
         inkscape:connector-curvature="0"
         id="path40" /></clipPath></defs><g
     transform="matrix(1.25,0,0,-1.25,0,110)"
     id="g10"><g
       id="g12"><g
         id="g14"><g
           clip-path="url(#clipPath18)"
           id="g16"><g
             transform="translate(-7,0)"
             id="g22"><g
               id="g24"><g
                 clip-path="url(#clipPath28)"
                 id="g26"><g
                   id="g32" /><g
                   id="g34"><g
                     clip-path="url(#clipPath38)"
                     id="g36"><path
                       d="M 0,96 174,96 174,0 0,0 0,96 z"
                       inkscape:connector-curvature="0"
                       id="path42"
                       style="fill:#ffffff;fill-opacity:0;fill-rule:evenodd;stroke:none" /><g
                       transform="matrix(-7.874016e-5,0,0,-7.874016e-5,8.410157,70.61646)"
                       id="g44"><path
                         d="M -0.00429916,-0.04199219 4564.991,887044"
                         inkscape:connector-curvature="0"
                         id="path46"
                         style="fill:none;stroke:#cbcbcb;stroke-width:25400;stroke-linecap:butt;stroke-linejoin:round;stroke-miterlimit:10;stroke-opacity:1;stroke-dasharray:76200, 25400;stroke-dashoffset:0" /></g><g
                       transform="matrix(7.874016e-5,0,0,-7.874016e-5,8.05063,59.69339)"
                       id="g48"><path
                         d="M 0.00393295,-0.00318909 1969489,-0.00318909"
                         inkscape:connector-curvature="0"
                         id="path50"
                         style="fill:none;stroke:#89a24c;stroke-width:25400;stroke-linecap:butt;stroke-linejoin:round;stroke-miterlimit:10;stroke-opacity:1;stroke-dasharray:none" /></g><path
                       d="m 165.1131,59.69339 -7.4807,-4.36378 0,0 c -0.4771,-0.27828 -1.0894,-0.11715 -1.3677,0.3599 l 0,0 c -0.2783,0.47705 -0.1171,1.08937 0.3599,1.36765 l 4.5193,2.63623 -4.5193,2.63622 0,0 c -0.477,0.27828 -0.6382,0.8906 -0.3599,1.36765 0,0 0,0 0,0 l 0,0 c 0.2783,0.47705 0.8906,0.63818 1.3677,0.35991 l 7.4807,-4.36378 z"
                       inkscape:connector-curvature="0"
                       id="path52"
                       style="fill:#89a24c;fill-opacity:1;fill-rule:evenodd;stroke:none" /><g
                       transform="translate(42.89906,91.89063)"
                       id="g54"><text
                         transform="matrix(1,0,0,-1,26.4544,-14)"
                         id="text56"><tspan
                           x="0 8.5651999"
                           y="0"
                           id="tspan58"
                           style="font-size:14px;font-variant:normal;font-weight:normal;writing-mode:lr-tb;fill:#000000;fill-opacity:1;fill-rule:nonzero;stroke:none;font-family:ArialMT;-inkscape-font-specification:ArialMT">A </tspan></text>
</g><g
                       transform="matrix(-7.874016e-5,0,0,-7.874016e-5,128.8663,12.33331)"
                       id="g60"><path
                         d="M -0.04162598,-0.00930786 1509153,0.9717369"
                         inkscape:connector-curvature="0"
                         id="path62"
                         style="fill:none;stroke:#a74a44;stroke-width:25400;stroke-linecap:butt;stroke-linejoin:round;stroke-miterlimit:10;stroke-opacity:1;stroke-dasharray:none" /></g><path
                       d="m 8.050711,12.33323 7.480769,-4.363777 0,0 c 0.47705,-0.27828 1.08937,-0.117144 1.36765,0.359909 l 0,0 c 0.27828,0.477052 0.11714,1.08937 -0.35991,1.367649 l -4.51924,2.636219 4.51924,2.63622 0,0 c 0.47705,0.27828 0.63818,0.8906 0.3599,1.36765 0,0 0,0 0,0 l 0,0 c -0.27828,0.47706 -0.8906,0.63819 -1.36765,0.35991 L 8.050711,12.33323 z"
                       inkscape:connector-curvature="0"
                       id="path64"
                       style="fill:#a74a44;fill-opacity:1;fill-rule:evenodd;stroke:none" /><g
                       transform="translate(42.8989,44.53055)"
                       id="g66"><text
                         transform="matrix(1,0,0,-1,27.2244,-14)"
                         id="text68"><tspan
                           x="0 9.3380003"
                           y="0"
                           id="tspan70"
                           style="font-size:14px;font-variant:normal;font-weight:normal;writing-mode:lr-tb;fill:#000000;fill-opacity:1;fill-rule:nonzero;stroke:none;font-family:ArialMT;-inkscape-font-specification:ArialMT">B </tspan></text>
</g></g></g></g></g></g></g></g></g></g></svg>