<?xml version="1.0" encoding="UTF-8" standalone="no"?>
<!-- Created with Inkscape (http://www.inkscape.org/) -->

<svg
   xmlns:dc="http://purl.org/dc/elements/1.1/"
   xmlns:cc="http://creativecommons.org/ns#"
   xmlns:rdf="http://www.w3.org/1999/02/22-rdf-syntax-ns#"
   xmlns:svg="http://www.w3.org/2000/svg"
   xmlns="http://www.w3.org/2000/svg"
   xmlns:inkscape="http://www.inkscape.org/namespaces/inkscape"
   version="1.1"
   width="198.75"
   height="110"
   id="svg2"
   xml:space="preserve"><metadata
     id="metadata8"><rdf:RDF><cc:Work
         rdf:about=""><dc:format>image/svg+xml</dc:format><dc:type
           rdf:resource="http://purl.org/dc/dcmitype/StillImage" /></cc:Work></rdf:RDF></metadata><defs
     id="defs6"><clipPath
       id="clipPath18"><path
         d="M 0,0 159,0 159,88 0,88 0,0 z"
         inkscape:connector-curvature="0"
         id="path20" /></clipPath><clipPath
       id="clipPath28"><path
         d="M 0,0 167,0 167,96 0,96 0,0 z"
         inkscape:connector-curvature="0"
         id="path30" /></clipPath><clipPath
       id="clipPath38"><path
         d="M 0,0 167,0 167,96 0,96 0,0 z"
         inkscape:connector-curvature="0"
         id="path40" /></clipPath></defs><g
     transform="matrix(1.25,0,0,-1.25,0,110)"
     id="g10"><g
       id="g12"><g
         id="g14"><g
           clip-path="url(#clipPath18)"
           id="g16"><g
             transform="translate(-8,0)"
             id="g22"><g
               id="g24"><g
                 clip-path="url(#clipPath28)"
                 id="g26"><g
                   id="g32" /><g
                   id="g34"><g
                     clip-path="url(#clipPath38)"
                     id="g36"><path
                       d="M 0,96 167,96 167,0 0,0 0,96 z"
                       inkscape:connector-curvature="0"
                       id="path42"
                       style="fill:#ffffff;fill-opacity:0;fill-rule:evenodd;stroke:none" /><g
                       transform="matrix(-7.874016e-5,0,0,-7.874016e-5,165.0896,59.41354)"
                       id="g44"><path
                         d="M -0.04003906,-0.00500488 1479997,0.9639282"
                         inkscape:connector-curvature="0"
                         id="path46"
                         style="fill:none;stroke:#a74a44;stroke-width:25400;stroke-linecap:butt;stroke-linejoin:round;stroke-miterlimit:10;stroke-opacity:1;stroke-dasharray:none" /></g><path
                       d="m 46.56976,59.41347 7.48076,-4.36378 0,0 c 0.47705,-0.27828 1.08937,-0.11714 1.36765,0.35991 l 0,0 c 0.27828,0.47705 0.11715,1.08937 -0.35991,1.36765 l -4.51924,2.63622 4.51924,2.63622 0,0 c 0.47705,0.27828 0.63819,0.8906 0.35991,1.36765 0,0 0,0 0,0 l 0,0 c -0.27829,0.47705 -0.8906,0.63819 -1.36766,0.35991 l -7.48075,-4.36378 z"
                       inkscape:connector-curvature="0"
                       id="path48"
                       style="fill:#a74a44;fill-opacity:1;fill-rule:evenodd;stroke:none" /><g
                       transform="translate(82.12748,44.25071)"
                       id="g50"><text
                         transform="matrix(1,0,0,-1,10.8976,-14)"
                         id="text52"><tspan
                           x="0 8.5651999"
                           y="0"
                           id="tspan54"
                           style="font-size:14px;font-variant:normal;font-weight:normal;writing-mode:lr-tb;fill:#000000;fill-opacity:1;fill-rule:nonzero;stroke:none;font-family:ArialMT;-inkscape-font-specification:ArialMT">A </tspan></text>
</g><g
                       transform="matrix(-7.874016e-5,0,0,-7.874016e-5,165.0895,12.05347)"
                       id="g56"><path
                         d="M -0.07110596,0.00292969 1969189,0.9960861"
                         inkscape:connector-curvature="0"
                         id="path58"
                         style="fill:none;stroke:#a74a44;stroke-width:25400;stroke-linecap:butt;stroke-linejoin:round;stroke-miterlimit:10;stroke-opacity:1;stroke-dasharray:none" /></g><path
                       d="m 8.050624,12.05339 7.480766,-4.363777 0,0 c 0.47705,-0.27828 1.08937,-0.117144 1.36765,0.359908 l 0,0 c 0.27828,0.477052 0.11714,1.08937 -0.35991,1.36765 l -4.51924,2.636219 4.51924,2.63622 0,0 c 0.47705,0.27828 0.63819,0.8906 0.35991,1.36765 0,0 0,0 0,0 l 0,0 c -0.27829,0.47706 -0.8906,0.63819 -1.36765,0.35991 L 8.050624,12.05339 z"
                       inkscape:connector-curvature="0"
                       id="path60"
                       style="fill:#a74a44;fill-opacity:1;fill-rule:evenodd;stroke:none" /><g
                       transform="translate(82.12748,91.61079)"
                       id="g62"><text
                         transform="matrix(1,0,0,-1,11.6676,-14)"
                         id="text64"><tspan
                           x="0 9.3380003"
                           y="0"
                           id="tspan66"
                           style="font-size:14px;font-variant:normal;font-weight:normal;writing-mode:lr-tb;fill:#000000;fill-opacity:1;fill-rule:nonzero;stroke:none;font-family:ArialMT;-inkscape-font-specification:ArialMT">B </tspan></text>
</g><g
                       transform="matrix(7.874016e-5,0,0,-7.874016e-5,165.6019,70.97638)"
                       id="g68"><path
                         d="M -0.08673096,-0.01831055 0.8822021,897879"
                         inkscape:connector-curvature="0"
                         id="path70"
                         style="fill:none;stroke:#cbcbcb;stroke-width:25400;stroke-linecap:butt;stroke-linejoin:round;stroke-miterlimit:10;stroke-opacity:1;stroke-dasharray:76200, 25400;stroke-dashoffset:0" /></g></g></g></g></g></g></g></g></g></g></svg>