<?xml version="1.0" encoding="UTF-8" standalone="no"?>
<!-- Created with Inkscape (http://www.inkscape.org/) -->

<svg
   xmlns:dc="http://purl.org/dc/elements/1.1/"
   xmlns:cc="http://creativecommons.org/ns#"
   xmlns:rdf="http://www.w3.org/1999/02/22-rdf-syntax-ns#"
   xmlns:svg="http://www.w3.org/2000/svg"
   xmlns="http://www.w3.org/2000/svg"
   xmlns:inkscape="http://www.inkscape.org/namespaces/inkscape"
   version="1.1"
   width="242.5"
   height="76.25"
   id="svg2"
   xml:space="preserve"><metadata
     id="metadata8"><rdf:RDF><cc:Work
         rdf:about=""><dc:format>image/svg+xml</dc:format><dc:type
           rdf:resource="http://purl.org/dc/dcmitype/StillImage" /></cc:Work></rdf:RDF></metadata><defs
     id="defs6"><clipPath
       id="clipPath18"><path
         d="M 0,0 194,0 194,61 0,61 0,0 z"
         inkscape:connector-curvature="0"
         id="path20" /></clipPath><clipPath
       id="clipPath28"><path
         d="M 0,0 194,0 194,72 0,72 0,0 z"
         inkscape:connector-curvature="0"
         id="path30" /></clipPath><clipPath
       id="clipPath38"><path
         d="M 0,0 194,0 194,72 0,72 0,0 z"
         inkscape:connector-curvature="0"
         id="path40" /></clipPath></defs><g
     transform="matrix(1.25,0,0,-1.25,0,76.25)"
     id="g10"><g
       id="g12"><g
         id="g14"><g
           clip-path="url(#clipPath18)"
           id="g16"><g
             transform="translate(0,-3)"
             id="g22"><g
               id="g24"><g
                 clip-path="url(#clipPath28)"
                 id="g26"><g
                   id="g32" /><g
                   id="g34"><g
                     clip-path="url(#clipPath38)"
                     id="g36"><path
                       d="M 0,72 194,72 194,0 0,0 0,72 z"
                       inkscape:connector-curvature="0"
                       id="path42"
                       style="fill:#ffffff;fill-opacity:0;fill-rule:evenodd;stroke:none" /><g
                       transform="matrix(7.874016e-5,0,0,-7.874016e-5,0.4145669,42.15055)"
                       id="g44"><path
                         d="M 6.318092e-5,0.00430298 1584520,0.00430298"
                         inkscape:connector-curvature="0"
                         id="path46"
                         style="fill:none;stroke:#89a24c;stroke-width:25400;stroke-linecap:butt;stroke-linejoin:round;stroke-miterlimit:10;stroke-opacity:1;stroke-dasharray:none" /></g><path
                       d="m 127.1646,42.15055 -7.4808,-4.36378 0,0 c -0.4771,-0.27828 -1.0894,-0.11714 -1.3676,0.35991 l 0,0 c -0.2783,0.47705 -0.1172,1.08937 0.3599,1.36765 l 4.5192,2.63622 -4.5192,2.63622 0,0 c -0.4771,0.27828 -0.6382,0.8906 -0.3599,1.36765 0,0 0,0 0,0 l 0,0 c 0.2782,0.47705 0.8905,0.63819 1.3676,0.35991 l 7.4808,-4.36378 z"
                       inkscape:connector-curvature="0"
                       id="path48"
                       style="fill:#89a24c;fill-opacity:1;fill-rule:evenodd;stroke:none" /><g
                       transform="translate(49.33047,67.56008)"
                       id="g50"><text
                         transform="matrix(1,0,0,-1,15.5568,-14)"
                         id="text52"><tspan
                           x="0 9.3380003"
                           y="0"
                           id="tspan54"
                           style="font-size:14px;font-variant:normal;font-weight:normal;writing-mode:lr-tb;fill:#000000;fill-opacity:1;fill-rule:nonzero;stroke:none;font-family:ArialMT;-inkscape-font-specification:ArialMT">B </tspan></text>
</g><g
                       transform="matrix(-7.874016e-5,0,0,-7.874016e-5,193.5313,8.365906)"
                       id="g56"><path
                         d="M -0.06878662,-0.00317383 1509153,0.9778709"
                         inkscape:connector-curvature="0"
                         id="path58"
                         style="fill:none;stroke:#a74a44;stroke-width:25400;stroke-linecap:butt;stroke-linejoin:round;stroke-miterlimit:10;stroke-opacity:1;stroke-dasharray:none" /></g><path
                       d="m 72.71568,8.365828 7.48076,-4.363775 0,0 c 0.47705,-0.27828 1.08937,-0.117143 1.36765,0.359909 l 0,0 c 0.27828,0.477052 0.11715,1.08937 -0.3599,1.36765 l -4.51925,2.636217 4.51924,2.636221 0,0 c 0.47705,0.27828 0.63819,0.8906 0.35991,1.36765 0,0 0,0 0,0 l 0,0 c -0.27829,0.47706 -0.89061,0.63819 -1.36766,0.35991 L 72.71568,8.365828 z"
                       inkscape:connector-curvature="0"
                       id="path60"
                       style="fill:#a74a44;fill-opacity:1;fill-rule:evenodd;stroke:none" /><g
                       transform="translate(122.7366,33.77543)"
                       id="g62"><text
                         transform="matrix(1,0,0,-1,14.7868,-14)"
                         id="text64"><tspan
                           x="0 8.5651999"
                           y="0"
                           id="tspan66"
                           style="font-size:14px;font-variant:normal;font-weight:normal;writing-mode:lr-tb;fill:#000000;fill-opacity:1;fill-rule:nonzero;stroke:none;font-family:ArialMT;-inkscape-font-specification:ArialMT">A </tspan></text>
</g></g></g></g></g></g></g></g></g></g></svg>