<?xml version="1.0" encoding="UTF-8" standalone="no"?>
<!-- Created with Inkscape (http://www.inkscape.org/) -->

<svg
   xmlns:dc="http://purl.org/dc/elements/1.1/"
   xmlns:cc="http://creativecommons.org/ns#"
   xmlns:rdf="http://www.w3.org/1999/02/22-rdf-syntax-ns#"
   xmlns:svg="http://www.w3.org/2000/svg"
   xmlns="http://www.w3.org/2000/svg"
   xmlns:inkscape="http://www.inkscape.org/namespaces/inkscape"
   version="1.1"
   width="242.5"
   height="77.5"
   id="svg2"
   xml:space="preserve"><metadata
     id="metadata8"><rdf:RDF><cc:Work
         rdf:about=""><dc:format>image/svg+xml</dc:format><dc:type
           rdf:resource="http://purl.org/dc/dcmitype/StillImage" /></cc:Work></rdf:RDF></metadata><defs
     id="defs6"><clipPath
       id="clipPath18"><path
         d="M 0,0 194,0 194,62 0,62 0,0 z"
         inkscape:connector-curvature="0"
         id="path20" /></clipPath><clipPath
       id="clipPath28"><path
         d="M 0,0 202,0 202,72 0,72 0,0 z"
         inkscape:connector-curvature="0"
         id="path30" /></clipPath><clipPath
       id="clipPath38"><path
         d="M 0,0 202,0 202,72 0,72 0,0 z"
         inkscape:connector-curvature="0"
         id="path40" /></clipPath></defs><g
     transform="matrix(1.25,0,0,-1.25,0,77.5)"
     id="g10"><g
       id="g12"><g
         id="g14"><g
           clip-path="url(#clipPath18)"
           id="g16"><g
             transform="translate(0,-3)"
             id="g22"><g
               id="g24"><g
                 clip-path="url(#clipPath28)"
                 id="g26"><g
                   id="g32" /><g
                   id="g34"><g
                     clip-path="url(#clipPath38)"
                     id="g36"><path
                       d="M 0,72 202,72 202,0 0,0 0,72 z"
                       inkscape:connector-curvature="0"
                       id="path42"
                       style="fill:#ffffff;fill-opacity:0;fill-rule:evenodd;stroke:none" /><g
                       transform="matrix(7.874016e-5,0,0,7.874016e-5,0.2637795,42.42772)"
                       id="g44"><path
                         d="M 1.606941e-4,0.03277588 1586108,1562.68"
                         inkscape:connector-curvature="0"
                         id="path46"
                         style="fill:none;stroke:#89a24c;stroke-width:25400;stroke-linecap:butt;stroke-linejoin:round;stroke-miterlimit:10;stroke-opacity:1;stroke-dasharray:none" /></g><path
                       d="m 127.1388,42.55272 -7.4851,4.3564 0,0 c -0.4773,0.27782 -1.0895,0.11608 -1.3673,-0.36125 l 0,0 c -0.2778,-0.47732 -0.1161,-1.08948 0.3613,-1.3673 l 4.5218,-2.63176 -4.5166,-2.64068 0,0 c -0.4768,-0.27875 -0.6373,-0.89122 -0.3586,-1.368 0,0 0,0 0,0 l 0,0 c 0.2788,-0.47678 0.8912,-0.63731 1.368,-0.35856 l 7.4765,4.37115 z"
                       inkscape:connector-curvature="0"
                       id="path48"
                       style="fill:#89a24c;fill-opacity:1;fill-rule:evenodd;stroke:none" /><g
                       transform="translate(49.33047,67.96008)"
                       id="g50"><text
                         transform="matrix(1,0,0,-1,14.7868,-14)"
                         id="text52"><tspan
                           x="0 8.5651999"
                           y="0"
                           id="tspan54"
                           style="font-size:14px;font-variant:normal;font-weight:normal;writing-mode:lr-tb;fill:#000000;fill-opacity:1;fill-rule:nonzero;stroke:none;font-family:ArialMT;-inkscape-font-specification:ArialMT">A </tspan></text>
</g><g
                       transform="matrix(7.874016e-5,0,0,-7.874016e-5,72.8085,8.64307)"
                       id="g56"><path
                         d="m 0.04040527,3.814697e-4 1509113.95959473,0"
                         inkscape:connector-curvature="0"
                         id="path58"
                         style="fill:none;stroke:#89a24c;stroke-width:25400;stroke-linecap:butt;stroke-linejoin:round;stroke-miterlimit:10;stroke-opacity:1;stroke-dasharray:none" /></g><path
                       d="m 193.621,8.64307 -7.4808,-4.363779 0,0 c -0.477,-0.27828 -1.0893,-0.117144 -1.3676,0.359908 l 0,0 c -0.2783,0.477052 -0.1172,1.08937 0.3599,1.36765 l 4.5192,2.636221 -4.5192,2.63622 0,0 c -0.4771,0.27828 -0.6382,0.8906 -0.3599,1.36765 0,0 0,0 0,0 l 0,0 c 0.2783,0.47705 0.8906,0.63819 1.3676,0.35991 l 7.4808,-4.36378 z"
                       inkscape:connector-curvature="0"
                       id="path60"
                       style="fill:#89a24c;fill-opacity:1;fill-rule:evenodd;stroke:none" /><g
                       transform="translate(122.7366,34.0526)"
                       id="g62"><text
                         transform="matrix(1,0,0,-1,15.5568,-14)"
                         id="text64"><tspan
                           x="0 9.3380003"
                           y="0"
                           id="tspan66"
                           style="font-size:14px;font-variant:normal;font-weight:normal;writing-mode:lr-tb;fill:#000000;fill-opacity:1;fill-rule:nonzero;stroke:none;font-family:ArialMT;-inkscape-font-specification:ArialMT">B </tspan></text>
</g></g></g></g></g></g></g></g></g></g></svg>