<?xml version="1.0" encoding="UTF-8" standalone="no"?>
<!-- Created with Inkscape (http://www.inkscape.org/) -->

<svg
   xmlns:dc="http://purl.org/dc/elements/1.1/"
   xmlns:cc="http://creativecommons.org/ns#"
   xmlns:rdf="http://www.w3.org/1999/02/22-rdf-syntax-ns#"
   xmlns:svg="http://www.w3.org/2000/svg"
   xmlns="http://www.w3.org/2000/svg"
   xmlns:inkscape="http://www.inkscape.org/namespaces/inkscape"
   version="1.1"
   width="108.75"
   height="201.25"
   id="svg2"
   xml:space="preserve"><metadata
     id="metadata8"><rdf:RDF><cc:Work
         rdf:about=""><dc:format>image/svg+xml</dc:format><dc:type
           rdf:resource="http://purl.org/dc/dcmitype/StillImage" /></cc:Work></rdf:RDF></metadata><defs
     id="defs6"><clipPath
       id="clipPath18"><path
         d="M 0,0 94,0 94,166 0,166 0,0 z"
         inkscape:connector-curvature="0"
         id="path20" /></clipPath><clipPath
       id="clipPath28"><path
         d="M 0,0 94,0 94,166 0,166 0,0 z"
         inkscape:connector-curvature="0"
         id="path30" /></clipPath></defs><g
     transform="matrix(1.25,0,0,-1.25,0,201.25)"
     id="g10"><g
       transform="translate(-7,-5)"
       id="g12"><g
         id="g14"><g
           clip-path="url(#clipPath18)"
           id="g16"><g
             id="g22" /><g
             id="g24"><g
               clip-path="url(#clipPath28)"
               id="g26"><path
                 d="M 0,166 94,166 94,0 0,0 0,166 z"
                 inkscape:connector-curvature="0"
                 id="path32"
                 style="fill:#ffffff;fill-opacity:0;fill-rule:evenodd;stroke:none" /><g
                 transform="matrix(0,7.874016e-5,7.874016e-5,0,33.42842,8.649689)"
                 id="g34"><path
                   d="M -1.220704e-4,-0.0045929 1509153,1.98172"
                   inkscape:connector-curvature="0"
                   id="path36"
                   style="fill:none;stroke:#4675a3;stroke-width:25400;stroke-linecap:butt;stroke-linejoin:round;stroke-miterlimit:10;stroke-opacity:1;stroke-dasharray:none" /></g><path
                 d="m 33.42859,129.4653 4.36376,-7.4808 0,0 c 0.27828,-0.477 0.11715,-1.0894 -0.3599,-1.3676 l 0,0 c -0.47706,-0.2783 -1.08938,-0.1172 -1.36766,0.3599 l -2.63621,4.5192 -2.63623,-4.5192 0,0 c -0.27828,-0.4771 -0.8906,-0.6382 -1.36765,-0.3599 0,0 0,0 0,0 l 0,0 c -0.47705,0.2782 -0.63819,0.8906 -0.35991,1.3676 l 4.3638,7.4808 z"
                 inkscape:connector-curvature="0"
                 id="path38"
                 style="fill:#4675a3;fill-opacity:1;fill-rule:evenodd;stroke:none" /><g
                 transform="matrix(0,1,-1,0,3.894095,47.45709)"
                 id="g40"><text
                   transform="matrix(1,0,0,-1,22.5652,-14)"
                   id="text42"><tspan
                     x="0 8.5651999"
                     y="0"
                     id="tspan44"
                     style="font-size:14px;font-variant:normal;font-weight:normal;writing-mode:lr-tb;fill:#000000;fill-opacity:1;fill-rule:nonzero;stroke:none;font-family:ArialMT;-inkscape-font-specification:ArialMT">A </tspan></text>
</g><g
                 transform="matrix(0,1,-1,0,47.30516,47.45712)"
                 id="g46"><text
                   transform="matrix(1,0,0,-1,23.3352,-14)"
                   id="text48"><tspan
                     x="0 9.3380003"
                     y="0"
                     id="tspan50"
                     style="font-size:14px;font-variant:normal;font-weight:normal;writing-mode:lr-tb;fill:#000000;fill-opacity:1;fill-rule:nonzero;stroke:none;font-family:ArialMT;-inkscape-font-specification:ArialMT">B </tspan></text>
</g><g
                 transform="matrix(7.874016e-5,0,0,-7.874016e-5,83.11961,165.329)"
                 id="g52"><path
                   d="m -0.00357056,-0.03955078 0,1969489.03955078"
                   inkscape:connector-curvature="0"
                   id="path54"
                   style="fill:none;stroke:#4675a3;stroke-width:25400;stroke-linecap:butt;stroke-linejoin:round;stroke-miterlimit:10;stroke-opacity:1;stroke-dasharray:none" /></g><path
                 d="m 83.11961,8.266478 -4.36378,7.480762 0,0 c -0.27828,0.47705 -0.11715,1.08937 0.35991,1.36765 l 0,0 c 0.47705,0.27828 1.08936,0.11715 1.36764,-0.35991 l 2.63623,-4.51923 2.63622,4.51923 0,0 c 0.27828,0.47706 0.89059,0.63819 1.36764,0.35991 0,0 0,0 0,0 l 0,0 c 0.47706,-0.27828 0.6382,-0.8906 0.35991,-1.36765 L 83.11961,8.266478 z"
                 inkscape:connector-curvature="0"
                 id="path56"
                 style="fill:#4675a3;fill-opacity:1;fill-rule:evenodd;stroke:none" /><g
                 transform="matrix(0,-7.874016e-5,7.874016e-5,0,23.15193,6.68335)"
                 id="g58"><path
                   d="M -9.765624e-4,0.0091629 4565,887044.1"
                   inkscape:connector-curvature="0"
                   id="path60"
                   style="fill:none;stroke:#cbcbcb;stroke-width:25400;stroke-linecap:butt;stroke-linejoin:round;stroke-miterlimit:10;stroke-opacity:1;stroke-dasharray:76200, 25400;stroke-dashoffset:0" /></g></g></g></g></g></g></g></svg>