<?xml version="1.0" encoding="UTF-8" standalone="no"?>
<!-- Created with Inkscape (http://www.inkscape.org/) -->

<svg
   xmlns:dc="http://purl.org/dc/elements/1.1/"
   xmlns:cc="http://creativecommons.org/ns#"
   xmlns:rdf="http://www.w3.org/1999/02/22-rdf-syntax-ns#"
   xmlns:svg="http://www.w3.org/2000/svg"
   xmlns="http://www.w3.org/2000/svg"
   xmlns:inkscape="http://www.inkscape.org/namespaces/inkscape"
   version="1.1"
   width="157.5"
   height="87.5"
   id="svg2"
   xml:space="preserve"><metadata
     id="metadata8"><rdf:RDF><cc:Work
         rdf:about=""><dc:format>image/svg+xml</dc:format><dc:type
           rdf:resource="http://purl.org/dc/dcmitype/StillImage" /></cc:Work></rdf:RDF></metadata><defs
     id="defs6"><clipPath
       id="clipPath18"><path
         d="M 0,0 131,0 131,70 0,70 0,0 z"
         inkscape:connector-curvature="0"
         id="path20" /></clipPath><clipPath
       id="clipPath28"><path
         d="M 0,0 131,0 131,70 0,70 0,0 z"
         inkscape:connector-curvature="0"
         id="path30" /></clipPath></defs><g
     transform="matrix(1.25,0,0,-1.25,0,87.5)"
     id="g10"><g
       transform="translate(-5,0)"
       id="g12"><g
         id="g14"><g
           clip-path="url(#clipPath18)"
           id="g16"><g
             id="g22" /><g
             id="g24"><g
               clip-path="url(#clipPath28)"
               id="g26"><path
                 d="M 0,70 131,70 131,0 0,0 0,70 z"
                 inkscape:connector-curvature="0"
                 id="path32"
                 style="fill:#ffffff;fill-opacity:0;fill-rule:evenodd;stroke:none" /><g
                 transform="matrix(-7.874016e-5,0,0,-7.874016e-5,128.9935,9.20126)"
                 id="g34"><path
                   d="M -0.05932617,-0.00489807 1505913,0.9761467"
                   inkscape:connector-curvature="0"
                   id="path36"
                   style="fill:none;stroke:#a74a44;stroke-width:25400;stroke-linecap:butt;stroke-linejoin:round;stroke-miterlimit:10;stroke-opacity:1;stroke-dasharray:none" /></g><path
                 d="m 8.432996,9.201181 7.480764,-4.363774 0,0 c 0.47706,-0.27828 1.08937,-0.117144 1.36765,0.359909 l 0,0 c 0.27828,0.477052 0.11715,1.089369 -0.35991,1.36765 l -4.51923,2.636217 4.51923,2.636227 0,0 c 0.47705,0.27828 0.63819,0.8906 0.35991,1.36765 0,0 0,0 0,0 l 0,0 c -0.27828,0.47705 -0.8906,0.63819 -1.36765,0.35991 L 8.432996,9.201181 z"
                 inkscape:connector-curvature="0"
                 id="path38"
                 style="fill:#a74a44;fill-opacity:1;fill-rule:evenodd;stroke:none" /><g
                 transform="translate(45.43496,41.99)"
                 id="g40"><text
                   transform="matrix(1,0,0,-1,14.7868,-14)"
                   id="text42"><tspan
                     x="0 8.5651999"
                     y="0"
                     id="tspan44"
                     style="font-size:14px;font-variant:normal;font-weight:normal;writing-mode:lr-tb;fill:#000000;fill-opacity:1;fill-rule:nonzero;stroke:none;font-family:ArialMT;-inkscape-font-specification:ArialMT">A </tspan></text>
</g><g
                 transform="matrix(-7.874016e-5,0,0,-7.874016e-5,129.5036,57.74433)"
                 id="g46"><path
                   d="M -0.0524292,-0.00827026 1512392,0.9606628"
                   inkscape:connector-curvature="0"
                   id="path48"
                   style="fill:none;stroke:#a74a44;stroke-width:25400;stroke-linecap:butt;stroke-linejoin:round;stroke-miterlimit:10;stroke-opacity:1;stroke-dasharray:none" /></g><path
                 d="m 8.432985,57.74426 7.480765,-4.36378 0,0 c 0.47705,-0.27828 1.08937,-0.11714 1.36765,0.35991 l 0,0 c 0.27828,0.47705 0.11715,1.08937 -0.35991,1.36765 l -4.51923,2.63622 4.51923,2.63622 0,0 c 0.47705,0.27828 0.63819,0.8906 0.35991,1.36765 0,0 0,0 0,0 l 0,0 c -0.27828,0.47705 -0.8906,0.63819 -1.36765,0.35991 L 8.432985,57.74426 z"
                 inkscape:connector-curvature="0"
                 id="path50"
                 style="fill:#a74a44;fill-opacity:1;fill-rule:evenodd;stroke:none" /><g
                 transform="matrix(7.874016e-5,0,0,-7.874016e-5,6.995118,69.89866)"
                 id="g52"><path
                   d="M 3.929138e-4,-0.02865601 0.9996052,882266"
                   inkscape:connector-curvature="0"
                   id="path54"
                   style="fill:none;stroke:#cbcbcb;stroke-width:25400;stroke-linecap:butt;stroke-linejoin:round;stroke-miterlimit:10;stroke-opacity:1;stroke-dasharray:76200, 25400;stroke-dashoffset:0" /></g><g
                 transform="matrix(7.874016e-5,0,0,-7.874016e-5,129.6952,69.89866)"
                 id="g56"><path
                   d="M 0.04345703,-0.02865601 1.01239,882266"
                   inkscape:connector-curvature="0"
                   id="path58"
                   style="fill:none;stroke:#cbcbcb;stroke-width:25400;stroke-linecap:butt;stroke-linejoin:round;stroke-miterlimit:10;stroke-opacity:1;stroke-dasharray:76200, 25400;stroke-dashoffset:0" /></g></g></g></g></g></g></g></svg>