<?xml version="1.0" encoding="UTF-8" standalone="no"?>
<!-- Created with Inkscape (http://www.inkscape.org/) -->

<svg
   xmlns:dc="http://purl.org/dc/elements/1.1/"
   xmlns:cc="http://creativecommons.org/ns#"
   xmlns:rdf="http://www.w3.org/1999/02/22-rdf-syntax-ns#"
   xmlns:svg="http://www.w3.org/2000/svg"
   xmlns="http://www.w3.org/2000/svg"
   xmlns:inkscape="http://www.inkscape.org/namespaces/inkscape"
   version="1.1"
   width="111.25"
   height="156.25"
   id="svg2"
   xml:space="preserve"><metadata
     id="metadata8"><rdf:RDF><cc:Work
         rdf:about=""><dc:format>image/svg+xml</dc:format><dc:type
           rdf:resource="http://purl.org/dc/dcmitype/StillImage" /></cc:Work></rdf:RDF></metadata><defs
     id="defs6"><clipPath
       id="clipPath18"><path
         d="M 0,0 96,0 96,131 0,131 0,0 z"
         inkscape:connector-curvature="0"
         id="path20" /></clipPath><clipPath
       id="clipPath28"><path
         d="M 0,0 96,0 96,131 0,131 0,0 z"
         inkscape:connector-curvature="0"
         id="path30" /></clipPath></defs><g
     transform="matrix(1.25,0,0,-1.25,0,156.25)"
     id="g10"><g
       transform="translate(-7,0)"
       id="g12"><g
         id="g14"><g
           clip-path="url(#clipPath18)"
           id="g16"><g
             id="g22" /><g
             id="g24"><g
               clip-path="url(#clipPath28)"
               id="g26"><path
                 d="M 0,131 96,131 96,0 0,0 0,131 z"
                 inkscape:connector-curvature="0"
                 id="path32"
                 style="fill:#ffffff;fill-opacity:0;fill-rule:evenodd;stroke:none" /><g
                 transform="matrix(0,7.874016e-5,-7.874016e-5,0,38.23291,2.149048)"
                 id="g34"><path
                   d="M -4.882812e-4,-0.00743103 1509153,0.9615021"
                   inkscape:connector-curvature="0"
                   id="path36"
                   style="fill:none;stroke:#4675a3;stroke-width:25400;stroke-linecap:butt;stroke-linejoin:round;stroke-miterlimit:10;stroke-opacity:1;stroke-dasharray:none" /></g><path
                 d="m 38.23284,122.9646 -4.36378,-7.4807 0,0 c -0.27828,-0.4771 -0.11714,-1.0894 0.35991,-1.3677 l 0,0 c 0.47705,-0.2783 1.08937,-0.1171 1.36765,0.3599 l 2.63622,4.5193 2.63622,-4.5193 0,0 c 0.27828,-0.477 0.8906,-0.6382 1.36765,-0.3599 0,0 0,0 0,0 l 0,0 c 0.47705,0.2783 0.63819,0.8906 0.35991,1.3677 l -4.36378,7.4807 z"
                 inkscape:connector-curvature="0"
                 id="path38"
                 style="fill:#4675a3;fill-opacity:1;fill-rule:evenodd;stroke:none" /><g
                 transform="matrix(0,1,-1,0,3.599527,44.53528)"
                 id="g40"><text
                   transform="matrix(1,0,0,-1,14.7868,-14)"
                   id="text42"><tspan
                     x="0 8.5651999"
                     y="0"
                     id="tspan44"
                     style="font-size:14px;font-variant:normal;font-weight:normal;writing-mode:lr-tb;fill:#000000;fill-opacity:1;fill-rule:nonzero;stroke:none;font-family:ArialMT;-inkscape-font-specification:ArialMT">A </tspan></text>
</g><g
                 transform="matrix(0,7.874016e-5,-7.874016e-5,0,86.77599,2.149292)"
                 id="g46"><path
                   d="M 4.882812e-4,-0.01861572 1509153,0.9503174"
                   inkscape:connector-curvature="0"
                   id="path48"
                   style="fill:none;stroke:#4675a3;stroke-width:25400;stroke-linecap:butt;stroke-linejoin:round;stroke-miterlimit:10;stroke-opacity:1;stroke-dasharray:none" /></g><path
                 d="m 86.77591,122.9649 -4.36378,-7.4808 0,0 c -0.27827,-0.477 -0.11714,-1.0894 0.35991,-1.3676 l 0,0 c 0.47705,-0.2783 1.08937,-0.1172 1.36765,0.3599 l 2.63622,4.5192 2.63622,-4.5192 0,0 c 0.27828,-0.4771 0.8906,-0.6382 1.36766,-0.3599 0,0 0,0 0,0 l 0,0 c 0.47705,0.2783 0.63818,0.8906 0.3599,1.3676 l -4.36378,7.4808 z"
                 inkscape:connector-curvature="0"
                 id="path50"
                 style="fill:#4675a3;fill-opacity:1;fill-rule:evenodd;stroke:none" /><g
                 transform="matrix(0,1,-1,0,52.1426,44.53528)"
                 id="g52"><text
                   transform="matrix(1,0,0,-1,15.5568,-14)"
                   id="text54"><tspan
                     x="0 9.3380003"
                     y="0"
                     id="tspan56"
                     style="font-size:14px;font-variant:normal;font-weight:normal;writing-mode:lr-tb;fill:#000000;fill-opacity:1;fill-rule:nonzero;stroke:none;font-family:ArialMT;-inkscape-font-specification:ArialMT">B </tspan></text>
</g><g
                 transform="matrix(0,7.874016e-5,7.874016e-5,0,26.07858,123.0209)"
                 id="g58"><path
                   d="M 0.00320435,0.00109863 0.9721375,882266"
                   inkscape:connector-curvature="0"
                   id="path60"
                   style="fill:none;stroke:#cbcbcb;stroke-width:25400;stroke-linecap:butt;stroke-linejoin:round;stroke-miterlimit:10;stroke-opacity:1;stroke-dasharray:76200, 25400;stroke-dashoffset:0" /></g><g
                 transform="matrix(0,7.874016e-5,7.874016e-5,0,26.45827,1.678268)"
                 id="g62"><path
                   d="M 0.00128174,-0.00640869 1.002008,882266"
                   inkscape:connector-curvature="0"
                   id="path64"
                   style="fill:none;stroke:#cbcbcb;stroke-width:25400;stroke-linecap:butt;stroke-linejoin:round;stroke-miterlimit:10;stroke-opacity:1;stroke-dasharray:76200, 25400;stroke-dashoffset:0" /></g></g></g></g></g></g></g></svg>