<?xml version="1.0" encoding="UTF-8" standalone="no"?>
<!-- Created with Inkscape (http://www.inkscape.org/) -->

<svg
   xmlns:dc="http://purl.org/dc/elements/1.1/"
   xmlns:cc="http://creativecommons.org/ns#"
   xmlns:rdf="http://www.w3.org/1999/02/22-rdf-syntax-ns#"
   xmlns:svg="http://www.w3.org/2000/svg"
   xmlns="http://www.w3.org/2000/svg"
   xmlns:inkscape="http://www.inkscape.org/namespaces/inkscape"
   version="1.1"
   width="157.5"
   height="108.75"
   id="svg2"
   xml:space="preserve"><metadata
     id="metadata8"><rdf:RDF><cc:Work
         rdf:about=""><dc:format>image/svg+xml</dc:format><dc:type
           rdf:resource="http://purl.org/dc/dcmitype/StillImage" /></cc:Work></rdf:RDF></metadata><defs
     id="defs6"><clipPath
       id="clipPath18"><path
         d="M 0,0 138,0 138,95 0,95 0,0 z"
         inkscape:connector-curvature="0"
         id="path20" /></clipPath><clipPath
       id="clipPath28"><path
         d="M 0,0 138,0 138,95 0,95 0,0 z"
         inkscape:connector-curvature="0"
         id="path30" /></clipPath></defs><g
     transform="matrix(1.25,0,0,-1.25,0,108.75)"
     id="g10"><g
       transform="translate(-5,0)"
       id="g12"><g
         id="g14"><g
           clip-path="url(#clipPath18)"
           id="g16"><g
             id="g22" /><g
             id="g24"><g
               clip-path="url(#clipPath28)"
               id="g26"><path
                 d="M 0,95 138,95 138,0 0,0 0,95 z"
                 inkscape:connector-curvature="0"
                 id="path32"
                 style="fill:#ffffff;fill-opacity:0;fill-rule:evenodd;stroke:none" /><g
                 transform="matrix(7.874016e-5,0,0,-7.874016e-5,8.432914,57.65819)"
                 id="g34"><path
                   d="M 0.0050087,0.01409912 1514670,0.01409912"
                   inkscape:connector-curvature="0"
                   id="path36"
                   style="fill:none;stroke:#89a24c;stroke-width:25400;stroke-linecap:butt;stroke-linejoin:round;stroke-miterlimit:10;stroke-opacity:1;stroke-dasharray:none" /></g><path
                 d="m 129.6829,57.65819 -7.4808,-4.36378 0,0 c -0.477,-0.27828 -1.0893,-0.11714 -1.3676,0.35991 l 0,0 c -0.2783,0.47705 -0.1171,1.08937 0.3599,1.36765 l 4.5192,2.63622 -4.5192,2.63622 0,0 c -0.477,0.27828 -0.6382,0.8906 -0.3599,1.36765 0,0 0,0 0,0 l 0,0 c 0.2783,0.47705 0.8906,0.63819 1.3676,0.35991 l 7.4808,-4.36378 z"
                 inkscape:connector-curvature="0"
                 id="path38"
                 style="fill:#89a24c;fill-opacity:1;fill-rule:evenodd;stroke:none" /><g
                 transform="translate(45.43496,90.44693)"
                 id="g40"><text
                   transform="matrix(1,0,0,-1,15.5568,-14)"
                   id="text42"><tspan
                     x="0 9.3380003"
                     y="0"
                     id="tspan44"
                     style="font-size:14px;font-variant:normal;font-weight:normal;writing-mode:lr-tb;fill:#000000;fill-opacity:1;fill-rule:nonzero;stroke:none;font-family:ArialMT;-inkscape-font-specification:ArialMT">B </tspan></text>
</g><g
                 transform="matrix(-7.874016e-5,0,0,-7.874016e-5,129.695,9.11512)"
                 id="g46"><path
                   d="M -0.01165771,2.746582e-4 1514822,0.9813194"
                   inkscape:connector-curvature="0"
                   id="path48"
                   style="fill:none;stroke:#a74a44;stroke-width:25400;stroke-linecap:butt;stroke-linejoin:round;stroke-miterlimit:10;stroke-opacity:1;stroke-dasharray:none" /></g><path
                 d="m 8.432992,9.115042 7.480768,-4.363775 0,0 c 0.47705,-0.27828 1.08937,-0.117143 1.36765,0.359909 l 0,0 c 0.27828,0.477052 0.11714,1.08937 -0.35991,1.36765 l -4.51924,2.636218 4.51924,2.636226 0,0 c 0.47705,0.27828 0.63818,0.8906 0.3599,1.36765 0,0 0,0 0,0 l 0,0 c -0.27828,0.47705 -0.8906,0.63819 -1.36765,0.35991 L 8.432992,9.115042 z"
                 inkscape:connector-curvature="0"
                 id="path50"
                 style="fill:#a74a44;fill-opacity:1;fill-rule:evenodd;stroke:none" /><g
                 transform="translate(45.43496,41.90386)"
                 id="g52"><text
                   transform="matrix(1,0,0,-1,14.7868,-14)"
                   id="text54"><tspan
                     x="0 8.5651999"
                     y="0"
                     id="tspan56"
                     style="font-size:14px;font-variant:normal;font-weight:normal;writing-mode:lr-tb;fill:#000000;fill-opacity:1;fill-rule:nonzero;stroke:none;font-family:ArialMT;-inkscape-font-specification:ArialMT">A </tspan></text>
</g><g
                 transform="matrix(7.874016e-5,0,0,-7.874016e-5,6.995118,69.81252)"
                 id="g58"><path
                   d="M 3.929138e-4,-0.00628662 0.9996052,882266"
                   inkscape:connector-curvature="0"
                   id="path60"
                   style="fill:none;stroke:#cbcbcb;stroke-width:25400;stroke-linecap:butt;stroke-linejoin:round;stroke-miterlimit:10;stroke-opacity:1;stroke-dasharray:76200, 25400;stroke-dashoffset:0" /></g><g
                 transform="matrix(7.874016e-5,0,0,-7.874016e-5,129.695,69.81252)"
                 id="g62"><path
                   d="M 0.01165771,-0.00628662 0.9805908,882266"
                   inkscape:connector-curvature="0"
                   id="path64"
                   style="fill:none;stroke:#cbcbcb;stroke-width:25400;stroke-linecap:butt;stroke-linejoin:round;stroke-miterlimit:10;stroke-opacity:1;stroke-dasharray:76200, 25400;stroke-dashoffset:0" /></g></g></g></g></g></g></g></svg>