<?xml version="1.0" encoding="UTF-8" standalone="no"?>
<svg
   xmlns:dc="http://purl.org/dc/elements/1.1/"
   xmlns:cc="http://creativecommons.org/ns#"
   xmlns:rdf="http://www.w3.org/1999/02/22-rdf-syntax-ns#"
   xmlns:svg="http://www.w3.org/2000/svg"
   xmlns="http://www.w3.org/2000/svg"
   version="1.1"
   id="svg2"
   viewBox="0 0 344.60992 75.339772"
   height="21.262558mm"
   width="97.256577mm">
  <defs
     id="defs4" />
  <metadata
     id="metadata7">
    <rdf:RDF>
      <cc:Work
         rdf:about="">
        <dc:format>image/svg+xml</dc:format>
        <dc:type
           rdf:resource="http://purl.org/dc/dcmitype/StillImage" />
        <dc:title></dc:title>
      </cc:Work>
    </rdf:RDF>
  </metadata>
  <g
     transform="translate(-35.066978,-297.22043)"
     id="layer1">
    <g
       transform="translate(-12.709291,-67.573224)"
       id="layer1-56">
      <flowRoot
         style="font-style:normal;font-variant:normal;font-weight:200;font-stretch:normal;font-size:40px;line-height:125%;font-family:'.HeitiUI GB18030PUA';-inkscape-font-specification:'.HeitiUI GB18030PUA Ultra-Light';letter-spacing:0px;word-spacing:0px;fill:#000000;fill-opacity:1;stroke:none;stroke-width:1px;stroke-linecap:butt;stroke-linejoin:miter;stroke-opacity:1"
         id="flowRoot4136"
         xml:space="preserve"><flowRegion
           id="flowRegion4138"><rect
             style="font-style:normal;font-variant:normal;font-weight:200;font-stretch:normal;font-family:'.HeitiUI GB18030PUA';-inkscape-font-specification:'.HeitiUI GB18030PUA Ultra-Light'"
             y="369.50507"
             x="48.57143"
             height="211.42857"
             width="662.85712"
             id="rect4140" /></flowRegion><flowPara
           id="flowPara4142" /></flowRoot>      <text
         id="text4327"
         y="444.40616"
         x="16.659622"
         style="font-style:normal;font-variant:normal;font-weight:200;font-stretch:normal;font-size:40px;line-height:125%;font-family:'.HeitiUI GB18030PUA';-inkscape-font-specification:'.HeitiUI GB18030PUA Ultra-Light';letter-spacing:0px;word-spacing:0px;fill:#000000;fill-opacity:1;stroke:none;stroke-width:1px;stroke-linecap:butt;stroke-linejoin:miter;stroke-opacity:1"
         xml:space="preserve"><tspan
           id="tspan4329"
           y="444.40616"
           x="204.35493"><tspan
             id="tspan4333"
             style="font-style:normal;font-variant:normal;font-weight:100;font-stretch:normal;font-size:100px;font-family:'.HeitiUI GB18030PUA';-inkscape-font-specification:'.HeitiUI GB18030PUA Thin';fill:#0088aa"
             y="444.40616"
             x="204.35493">BOL</tspan></tspan></text>
      <g
         transform="matrix(0.06927756,0.10786688,-0.07396335,0.06770109,311.5066,379.13146)"
         id="layer1-5">
        <path
           d="m -10.79518,214.33935 c -9.50311,0.75987 -5.26474,0.22327 -27.11296,0.36893 -25.7763,-0.3124 -58.318641,-103.78143 -81.57352,-127.505015 13.37152,0.04889 10.70866,2.949977 20.32188,3.348637 22.47116,-0.20412 50.37591,115.946458 88.3646,123.787448 z"
           id="path6644"
           style="opacity:1;fill:#5fd3bc;fill-opacity:1;stroke:#000000;stroke-width:3;stroke-miterlimit:4;stroke-dasharray:none;stroke-opacity:1" />
        <rect
           height="100.87332"
           id="rect6692"
           style="opacity:1;fill:#93aca7;fill-opacity:1;stroke:#000000;stroke-width:1.25000012;stroke-miterlimit:4;stroke-dasharray:none;stroke-opacity:1"
           transform="scale(-1,1)"
           width="7.5740514"
           x="42.430828"
           y="99.790092" />
        <path
           d="m 78.75817,214.33935 c -9.50311,0.75987 -5.26474,0.22327 -27.11296,0.36893 -25.7763,-0.3124 -55.22133,-100.88034 -78.47621,-124.603928 13.37152,0.04889 7.61135,0.04889 17.22457,0.44755 22.47116,-0.20412 50.37591,115.946458 88.3646,123.787448 z"
           id="path6761"
           style="opacity:1;fill:#005544;fill-opacity:1;stroke:#000000;stroke-width:3;stroke-miterlimit:4;stroke-dasharray:none;stroke-opacity:1" />
        <rect
           height="117.10648"
           id="rect6690"
           style="opacity:1;fill:#93aca7;fill-opacity:1;stroke:#000000;stroke-width:1.25;stroke-miterlimit:4;stroke-dasharray:none;stroke-opacity:1"
           transform="scale(-1,1)"
           width="8.1566706"
           x="17.378199"
           y="95.169189" />
        <rect
           height="72.827415"
           id="rect6694"
           style="opacity:1;fill:#93aca7;fill-opacity:1;stroke:#000000;stroke-width:1.25;stroke-miterlimit:4;stroke-dasharray:none;stroke-opacity:1"
           transform="scale(-1,1)"
           width="8.1566706"
           x="81.466331"
           y="120.22182" />
        <path
           d="m -10.79518,90.522952 c -9.50311,-0.75987 -5.26474,-0.22327 -27.11297,-0.36893 -25.77629,0.3124 -80.29043,132.986498 -103.54531,156.710088 13.37152,-0.0489 14.2525,-2.79414 23.86572,-3.19279 22.471163,0.20412 68.80386,-145.307378 106.79256,-153.148368 z"
           id="path6646"
           style="opacity:1;fill:#165044;fill-opacity:1;stroke:#000000;stroke-width:4;stroke-miterlimit:4;stroke-dasharray:none;stroke-opacity:1" />
        <rect
           height="100.87332"
           id="rect6763"
           style="opacity:1;fill:#93aca7;fill-opacity:1;stroke:#000000;stroke-width:1.25000012;stroke-miterlimit:4;stroke-dasharray:none;stroke-opacity:1"
           transform="scale(-1,1)"
           width="7.5740514"
           x="-47.12252"
           y="99.790092" />
        <path
           d="m 168.31152,214.33935 c -9.50311,0.75987 -5.26474,0.22327 -27.11296,0.36893 -25.7763,-0.3124 -55.22133,-100.88034 -78.47621,-124.603928 13.37152,0.04889 7.61135,0.04889 17.22457,0.44755 22.47116,-0.20412 50.37591,115.946458 88.3646,123.787448 z"
           id="path6775"
           style="opacity:1;fill:#37c8ab;fill-opacity:1;stroke:#000000;stroke-width:3;stroke-miterlimit:4;stroke-dasharray:none;stroke-opacity:1" />
        <rect
           height="117.10648"
           id="rect6765"
           style="opacity:1;fill:#93aca7;fill-opacity:1;stroke:#000000;stroke-width:1.25;stroke-miterlimit:4;stroke-dasharray:none;stroke-opacity:1"
           transform="scale(-1,1)"
           width="8.1566706"
           x="-72.175148"
           y="95.169189" />
        <rect
           height="72.827415"
           id="rect6767"
           style="opacity:1;fill:#93aca7;fill-opacity:1;stroke:#000000;stroke-width:1.25;stroke-miterlimit:4;stroke-dasharray:none;stroke-opacity:1"
           transform="scale(-1,1)"
           width="8.1566706"
           x="-8.087019"
           y="120.22182" />
        <path
           d="m 78.75817,90.522952 c -9.50311,-0.75987 -5.26474,-0.22327 -27.11297,-0.36893 -25.77629,0.3124 -55.22132,100.880338 -78.4762,124.603928 13.37152,-0.0489 7.61134,-0.0489 17.22456,-0.44755 22.47117,0.20412 50.37591,-115.946458 88.36461,-123.787448 z"
           id="path6769"
           style="opacity:1;fill:#37c8ab;fill-opacity:1;stroke:#000000;stroke-width:4;stroke-miterlimit:4;stroke-dasharray:none;stroke-opacity:1" />
        <rect
           height="100.87332"
           id="rect6777"
           style="opacity:1;fill:#93aca7;fill-opacity:1;stroke:#000000;stroke-width:1.25000012;stroke-miterlimit:4;stroke-dasharray:none;stroke-opacity:1"
           transform="scale(-1,1)"
           width="7.5740514"
           x="-136.67587"
           y="99.790092" />
        <path
           d="m 257.86482,214.33935 c -9.50311,0.75987 -5.26474,0.22327 -27.11296,0.36893 -25.7763,-0.3124 -55.22133,-100.88034 -78.47621,-124.603928 13.37152,0.04889 7.61135,0.04889 17.22457,0.44755 22.47116,-0.20412 50.37591,115.946458 88.3646,123.787448 z"
           id="path6789"
           style="opacity:1;fill:#005544;fill-opacity:1;stroke:#000000;stroke-width:3;stroke-miterlimit:4;stroke-dasharray:none;stroke-opacity:1" />
        <rect
           height="117.10648"
           id="rect6779"
           style="opacity:1;fill:#93aca7;fill-opacity:1;stroke:#000000;stroke-width:1.25;stroke-miterlimit:4;stroke-dasharray:none;stroke-opacity:1"
           transform="scale(-1,1)"
           width="8.1566706"
           x="-161.7285"
           y="95.169189" />
        <rect
           height="72.827415"
           id="rect6781"
           style="opacity:1;fill:#93aca7;fill-opacity:1;stroke:#000000;stroke-width:1.25;stroke-miterlimit:4;stroke-dasharray:none;stroke-opacity:1"
           transform="scale(-1,1)"
           width="8.1566706"
           x="-97.640366"
           y="120.22182" />
        <path
           d="m 168.31152,90.522952 c -9.50311,-0.75987 -5.26474,-0.22327 -27.11297,-0.36893 -25.77629,0.3124 -55.22132,100.880338 -78.4762,124.603928 13.37152,-0.0489 7.61134,-0.0489 17.22456,-0.44755 22.47117,0.20412 50.37591,-115.946458 88.36461,-123.787448 z"
           id="path6783"
           style="opacity:1;fill:#005544;fill-opacity:1;stroke:#000000;stroke-width:4;stroke-miterlimit:4;stroke-dasharray:none;stroke-opacity:1" />
        <rect
           height="100.87332"
           id="rect6791"
           style="opacity:1;fill:#93aca7;fill-opacity:1;stroke:#000000;stroke-width:1.25000012;stroke-miterlimit:4;stroke-dasharray:none;stroke-opacity:1"
           transform="scale(-1,1)"
           width="7.5740514"
           x="-226.22917"
           y="99.790092" />
        <rect
           height="117.10648"
           id="rect6793"
           style="opacity:1;fill:#93aca7;fill-opacity:1;stroke:#000000;stroke-width:1.25;stroke-miterlimit:4;stroke-dasharray:none;stroke-opacity:1"
           transform="scale(-1,1)"
           width="8.1566706"
           x="-251.2818"
           y="95.169189" />
        <rect
           height="72.827415"
           id="rect6795"
           style="opacity:1;fill:#93aca7;fill-opacity:1;stroke:#000000;stroke-width:1.25;stroke-miterlimit:4;stroke-dasharray:none;stroke-opacity:1"
           transform="scale(-1,1)"
           width="8.1566706"
           x="-187.19366"
           y="120.22182" />
        <path
           d="m 347.41822,214.33935 c -9.50311,0.75987 -5.26474,0.22327 -27.11296,0.36893 -25.7763,-0.3124 -55.22133,-100.88034 -78.47621,-124.603928 13.37152,0.04889 7.61135,0.04889 17.22457,0.44755 22.47116,-0.20412 50.37591,115.946458 88.3646,123.787448 z"
           id="path6803"
           style="opacity:1;fill:#37c8ab;fill-opacity:1;stroke:#000000;stroke-width:3;stroke-miterlimit:4;stroke-dasharray:none;stroke-opacity:1" />
        <path
           d="m 257.86482,90.522952 c -9.50311,-0.75987 -5.26474,-0.22327 -27.11297,-0.36893 -25.77629,0.3124 -55.22132,100.880338 -78.4762,124.603928 13.37152,-0.0489 7.61134,-0.0489 17.22456,-0.44755 22.47117,0.20412 50.37591,-115.946458 88.36461,-123.787448 z"
           id="path6797"
           style="opacity:1;fill:#37c8ab;fill-opacity:1;stroke:#000000;stroke-width:4;stroke-miterlimit:4;stroke-dasharray:none;stroke-opacity:1" />
        <rect
           height="100.87332"
           id="rect6805"
           style="opacity:1;fill:#93aca7;fill-opacity:1;stroke:#000000;stroke-width:1.25000012;stroke-miterlimit:4;stroke-dasharray:none;stroke-opacity:1"
           transform="scale(-1,1)"
           width="7.5740514"
           x="-315.78256"
           y="99.790092" />
        <rect
           height="117.10648"
           id="rect6807"
           style="opacity:1;fill:#93aca7;fill-opacity:1;stroke:#000000;stroke-width:1.25;stroke-miterlimit:4;stroke-dasharray:none;stroke-opacity:1"
           transform="scale(-1,1)"
           width="8.1566706"
           x="-340.83521"
           y="95.169189" />
        <rect
           height="72.827415"
           id="rect6809"
           style="opacity:1;fill:#93aca7;fill-opacity:1;stroke:#000000;stroke-width:1.25;stroke-miterlimit:4;stroke-dasharray:none;stroke-opacity:1"
           transform="scale(-1,1)"
           width="8.1566706"
           x="-276.74707"
           y="120.22182" />
        <path
           d="m 356.89444,83.260644 c -9.50311,-0.75987 -14.74096,7.039038 -36.58919,6.893378 -25.77629,0.3124 -55.22132,100.880338 -78.4762,124.603928 13.37152,-0.0489 7.61134,-0.0489 17.22456,-0.44755 22.47117,0.20412 59.85213,-123.208766 97.84083,-131.049756 z"
           id="path6811"
           style="opacity:1;fill:#005544;fill-opacity:1;stroke:#000000;stroke-width:4;stroke-miterlimit:4;stroke-dasharray:none;stroke-opacity:1" />
      </g>
      <text
         id="text4322"
         y="617.40283"
         x="152.84554"
         style="font-style:normal;font-weight:normal;font-size:40px;line-height:125%;font-family:sans-serif;letter-spacing:0px;word-spacing:0px;fill:#000000;fill-opacity:1;stroke:none;stroke-width:1px;stroke-linecap:butt;stroke-linejoin:miter;stroke-opacity:1"
         xml:space="preserve"><tspan
           y="617.40283"
           x="152.84554"
           id="tspan4324" /></text>
      <text
         id="text4326"
         y="528.78497"
         x="430.89432"
         style="font-style:normal;font-weight:normal;font-size:40px;line-height:125%;font-family:sans-serif;letter-spacing:0px;word-spacing:0px;fill:#000000;fill-opacity:1;stroke:none;stroke-width:1px;stroke-linecap:butt;stroke-linejoin:miter;stroke-opacity:1"
         xml:space="preserve"><tspan
           y="528.78497"
           x="430.89432"
           id="tspan4328" /></text>
    </g>
    <flowRoot
       style="font-style:normal;font-weight:normal;font-size:40px;line-height:125%;font-family:sans-serif;letter-spacing:0px;word-spacing:0px;fill:#000000;fill-opacity:1;stroke:none;stroke-width:1px;stroke-linecap:butt;stroke-linejoin:miter;stroke-opacity:1"
       id="flowRoot4335"
       xml:space="preserve"><flowRegion
         id="flowRegion4337"><rect
           y="401.29837"
           x="39.007092"
           height="86.524826"
           width="146.09929"
           id="rect4339" /></flowRegion><flowPara
         id="flowPara4341"></flowPara></flowRoot>    <text
       id="text4343"
       y="451.65298"
       x="100.70922"
       style="font-style:normal;font-weight:normal;font-size:40px;line-height:125%;font-family:sans-serif;letter-spacing:0px;word-spacing:0px;fill:#000000;fill-opacity:1;stroke:none;stroke-width:1px;stroke-linecap:butt;stroke-linejoin:miter;stroke-opacity:1"
       xml:space="preserve"><tspan
         y="451.65298"
         x="100.70922"
         id="tspan4345" /></text>
    <text
       id="text4355"
       y="370.60272"
       x="31.206505"
       style="font-style:normal;font-weight:normal;font-size:40px;line-height:125%;font-family:sans-serif;letter-spacing:0px;word-spacing:0px;fill:#164450;fill-opacity:1;stroke:none;stroke-width:1px;stroke-linecap:butt;stroke-linejoin:miter;stroke-opacity:1"
       xml:space="preserve"><tspan
         style="font-style:normal;font-variant:normal;font-weight:300;font-stretch:normal;font-size:68.75px;font-family:'Tamil MN';-inkscape-font-specification:'Tamil MN Light';fill:#164450"
         id="tspan4357"
         y="370.60272"
         x="31.206505"><tspan
           style="font-style:normal;font-variant:normal;font-weight:300;font-stretch:normal;font-size:68.75px;font-family:'Tamil MN';-inkscape-font-specification:'Tamil MN Light';fill:#164450"
           id="tspan4359"
           y="370.60272"
           x="31.206505">Cons</tspan></tspan></text>
  </g>
</svg>
